<?xml version="1.0" encoding="UTF-8"?>
<svg id="Layer_2" data-name="Layer 2" xmlns="http://www.w3.org/2000/svg" viewBox="0 0 891.2 510.68">
  <g id="Layer_1-2" data-name="Layer 1">
    <g>
      <g>
        <path style="fill: #e6f3f9" d="M511.23,142.88c0,30.68-24.87,55.55-55.55,55.55s-55.55-24.87-55.55-55.55c0-3.11,.25-6.17,.76-9.14,4.35,26.32,27.22,46.41,54.79,46.41s50.44-20.08,54.79-46.41c.5,2.97,.76,6.03,.76,9.14Z"/>
        <polyline style="fill: #e6f3f9" points="421.14 175.73 422.5 192.33 419.79 216.04 418.43 218.75 465.51 189.62"/>
      </g>
      <g>
        <path style="fill: #e6f3f9" d="M542.74,68.36c0,30.68,30.14,59.95,68.42,58.6,30.66-1.09,57.24-27.92,57.24-58.6,0-3.11-.25-6.17-.76-9.14-4.35,26.32-27.22,46.41-54.79,46.41-27.57,0-65-20.08-69.35-46.4-.5,2.97-.76,6.03-.76,9.14Z"/>
        <polyline style="fill: #e6f3f9" points="647.39 101.22 646.04 117.82 648.75 141.53 650.1 144.24 603.02 115.11"/>
      </g>
      <path style="fill: #ffdf5a" d="M236.55,371.85c-.06,7.15-1.45-11.49,5.71-11.43,7.15,.06,13-5.69,13.06-12.85l.12-4.42c0-11.78-9.55-21.34-21.34-21.34s-21.34,9.55-21.34,21.34c0,8.11,4.53,15.17,11.19,18.78"/>
      <path style="fill: #fff" d="M216.56,340.53c.37-5.02,2.88-9.83,6.89-12.9,2-1.53,4.32-2.61,6.76-3.21s5.44-.95,7.69,.34c1.68,.96,3.19-1.63,1.51-2.59-2.73-1.57-6.06-1.42-9.06-.85s-5.95,1.88-8.42,3.72c-4.94,3.68-7.93,9.36-8.38,15.49-.14,1.93,2.86,1.92,3,0h0Z"/>
      <path style="fill: #f4b006" d="M230.05,350.15c1.38,5.57,7.34,8.92,12.86,7.96,5.92-1.04,10.22-6.42,11.02-12.18,.51-3.71-.23-7.4-1.77-10.79-.8-1.75-3.39-.23-2.59,1.51,2.6,5.68,2.06,13.23-3.5,16.96-2.33,1.56-5.1,2.13-7.79,1.26s-4.67-2.87-5.32-5.51c-.46-1.87-3.36-1.08-2.89,.8h0Z"/>
      <path style="fill: #ffdf5a" d="M193.19,423.64s24.64-26.39,24.64-66.02l20.58,5.59s1.69,62.66-11.52,94.5l-11.35,28.62-50.81-7.45"/>
      <path style="fill: #f4b006" d="M235.03,366.78c-.31,15.4-.74,30.83-2.32,46.16-.74,7.16-1.75,14.29-3.1,21.35-.68,3.53-1.43,7.04-2.28,10.54s-1.62,7.11-2.8,10.51c-.29,.84-1.25,.89-2.01,1.23s-1.51,.8-2.19,1.34c-1.41,1.11-2.57,2.56-3.41,4.14-2.07,3.89-2.27,8.39-2.41,12.71-.06,1.93,2.94,1.93,3,0,.12-3.76,.19-7.79,2.01-11.19,.75-1.4,1.76-2.71,3.08-3.62s3.19-1.03,4.17-2.38,1.19-3.28,1.61-4.78c.49-1.77,.96-3.55,1.41-5.33,.88-3.5,1.67-7.02,2.38-10.55,2.84-14.23,4.26-28.7,5.01-43.18,.47-8.98,.7-17.97,.88-26.96,.04-1.93-2.96-1.93-3,0h0Z"/>
      <path style="fill: #ffdf5a" d="M185.23,473.97c20.34-17.96,14.69-37.72,7.96-49.65-8.31-14.72-11.59-31.86-8.03-48.38,4.42-20.48,13.96-36.1,13.96-36.1-34.23,0-51.33,29.76-54.12,35.09l14.55,10.24c-6.94-6.78-17.77-13.15-33.93-13.15-23.01,0-39.11,9.17-47.3,15.29l25.2-12.76c-12.5-17.63-33.25-29.13-54.83-30.39,7.41,18.81,14.91,39.47,8.83,58.75-2.68,8.49-7.85,16-10.75,24.42-5.47,15.86-2,34.47,8.81,47.3"/>
      <ellipse style="fill: #f4b006; opacity: .48" cx="127.1" cy="458.94" rx="44.4" ry="39.88"/>
      <ellipse style="fill: #f4b006; opacity: .48" cx="127.1" cy="452.84" rx="60.45" ry="54.29"/>
      <path style="fill: #f4b006" d="M149.78,374.89c7.89-12.28,18.68-23.07,32.5-28.38,4.33-1.66,8.86-2.8,13.45-3.39,1.89-.24,1.91-3.25,0-3-8.32,1.07-16.32,3.69-23.53,7.99-6.64,3.95-12.49,9.15-17.48,15.03-2.74,3.23-5.24,6.67-7.53,10.23-1.05,1.63,1.55,3.14,2.59,1.51h0Z"/>
      <path style="fill: #fff" d="M50.67,347.2c8.09,15.25,11.86,32.58,10.92,49.81-.11,1.93,2.9,1.92,3,0,.97-17.76-3-35.62-11.33-51.33-.91-1.71-3.5-.19-2.59,1.51h0Z"/>
      <path style="fill: #fff" d="M203.71,414.6c7.78-10.53,12.88-22.95,14.76-35.91,.27-1.89-2.62-2.7-2.89-.8-1.84,12.74-6.81,24.84-14.46,35.19-1.15,1.55,1.45,3.05,2.59,1.51h0Z"/>
      <g>
        <path style="fill: #fff" d="M133.41,420.15c-.21,.92-.49,1.81-.83,2.66-2.58,6.59-8.63,11.22-15.68,11.22-9.4,0-17.02-8.22-17.02-18.37s7.62-18.37,17.02-18.37c7.3,0,13.53,4.97,15.95,11.94,.2,.58,.37,1.17,.52,1.77"/>
        <path style="fill: #fff" d="M133.27,410.73c2-7.75,8.58-13.43,16.4-13.43,9.4,0,17.02,8.22,17.02,18.37s-7.62,18.37-17.02,18.37c-7.78,0-14.34-5.64-16.37-13.33"/>
      </g>
      <path style="fill: #fccc9e" d="M825.9,485.14s20.32-15.58,28.45-34.38c8.13-18.8,8.47-33.7,8.47-33.7l-11.18-55.89-7.62-35.06-18.29-8.13s-24.89,3.56-26.42,4.06-24.89,22.86-26.42,23.88c-1.52,1.02-58.93,48.77-58.93,50.81s19.31,89.42,19.31,89.42l91.45-1.52"/>
      <path style="fill: #f4a462" d="M760.76,445.43c9.15,1.79,16.52-4.44,22.72-10.26l-2.51-.66c2.42,6.83,10.09,10.58,16.91,11.27,4.05,.41,7.89-.7,11.52-2.4,1.92-.9,3.79-1.92,5.71-2.83,2.07-.98,4.23-1.73,6.34-2.62,4.8-2.03,9.64-4.35,14.93-4.64,1.92-.11,1.93-3.11,0-3-4.37,.24-8.45,1.67-12.45,3.35s-7.85,3.08-11.62,4.95c-3.49,1.73-6.97,3.78-10.92,4.2-3.31,.35-6.76-.36-9.77-1.73-3.25-1.48-6.52-3.85-7.75-7.34-.38-1.07-1.64-1.47-2.51-.66-5.29,4.97-11.89,11.04-19.8,9.49-1.89-.37-2.69,2.52-.8,2.89h0Z"/>
      <path style="fill: #f4a462" d="M855.59,424.68c.04,9.94-2.59,20.16-6.89,29.09-2.12,4.4-4.72,8.65-8.15,12.16-4.09,4.2-9.45,7.04-14.78,9.34-7.05,3.03-14.54,5.05-22.14,6.12-1.9,.27-1.09,3.16,.8,2.89,7.12-1,14.1-2.85,20.77-5.55,5.79-2.35,11.6-5.23,16.25-9.49,7.72-7.08,12.22-17.62,14.82-27.58,1.44-5.53,2.35-11.27,2.32-16.99,0-1.93-3.01-1.93-3,0h0Z"/>
      <path style="fill: none; stroke-linecap: round; stroke-linejoin: round; stroke-width: 2px; stroke: #321c0a" d="M853.63,453.07c-5.61,13.2-15.78,25.81-34.17,25.81"/>
      <path style="fill: none; stroke-linecap: round; stroke-linejoin: round; stroke-width: 2px; stroke: #321c0a" d="M860.44,423.33s-.44,10.26-4,21.96"/>
      <path style="fill: #f4a462" d="M804.77,341.5c7.94,5.72,18,8.29,27.71,7.06l-1.3-2.26c-2.55,5.05-4.31,11.58-1.47,16.88,2.2,4.13,8.01,6.51,12.11,3.66l-2.26-1.3c.49,6.63,3.51,12.88,8.53,17.26,1.45,1.26,3.58-.85,2.12-2.12-4.41-3.85-7.22-9.28-7.65-15.14-.08-1.04-1.25-1.99-2.26-1.3-3.09,2.14-7.09-.18-8.35-3.32-1.7-4.23-.13-9.27,1.82-13.13,.45-.89-.08-2.41-1.3-2.26-9.26,1.17-18.62-1.19-26.19-6.65-1.57-1.13-3.07,1.47-1.51,2.59h0Z"/>
      <path style="fill: #e89177" d="M790.67,295.3s-23.37,21.68-63,9.15l19.31,49.79,44.03-11.52,10.5-17.61s0,15.92,21.68,17.95c0,0,9.74,2.03,14.23,.51,0,0-5.17,5.25-5.17,9.82s-.17,12.02,4.32,11.77,8.04-5.5,8.04-5.5l1.19,15.5,6.35,8.72s9.82-7.62,17.44-4.91,9.31,4.06,9.31,4.06c0,0,5.25-24.39,.68-39.63-4.57-15.24-10.67-19.98-10.67-19.98,0,0,3.3-10.12,1.14-14.18-2.16-4.06-5.59-8.26-7.62-6.22s-3.05,5.21-3.05,5.21l-.45,2.14s1.33-.1-3.24-3.53-13.21-9.27-17.66-9.15-10.16,.89-10.16,.89"/>
      <path style="fill: #e5694c" d="M832.48,302.6c5.58-.91,11.45,.84,15.88,4.28,2.21,1.72,4.07,3.87,5.4,6.33,1.55,2.88,2.09,6.21,4.03,8.88,.86,1.18,2.73,.81,2.8-.76,.15-3.3,.22-6.62,.44-9.92,.09-1.27,.25-2.86,1.36-3.68,1.2-.88,2.35,.13,2.85,1.28,1.15,2.64-.07,5.71-.49,8.36-.47,2.93-.09,5.56,1.27,8.2s3.2,4.72,4.67,7.15c1.58,2.6,2.85,5.39,3.82,8.28,1.94,5.79,2.75,11.88,2.87,17.97,.16,7.69-.72,15.36-1.59,22.99-.22,1.91,2.78,1.9,3,0,1.62-14.25,3.23-29.2-1.82-42.99-1.14-3.1-2.57-6.1-4.38-8.86-1.65-2.52-3.84-4.92-4.73-7.86-1-3.31,.55-6.58,.79-9.88,.2-2.8-.61-6.09-3.28-7.5-3.33-1.76-6.47,1.27-7.09,4.43-.37,1.91-.34,3.9-.42,5.83-.09,2.07-.18,4.13-.27,6.2l2.8-.76c-2.1-2.9-2.63-6.59-4.47-9.65-1.62-2.69-3.79-4.98-6.31-6.85-5.12-3.79-11.64-5.41-17.92-4.38-1.9,.31-1.09,3.2,.8,2.89h0Z"/>
      <path style="fill: #fccc9e" d="M848.66,386.49c4.16-4.72,10.25-7.7,17.04-7.7,12.53,0,22.69,10.16,22.69,22.69s-10.16,22.69-22.69,22.69c-4.52,0-8.73-1.32-12.27-3.6"/>
      <path style="fill: #f4a462" d="M852.45,389.2c2.5-1.84,5.07-3.76,7.98-4.9,2.66-1.04,5.57-1.32,8.38-.83,5.3,.92,9.8,4.18,12.42,8.85,2.35,4.19,3.2,9.3,2.11,14s-4.24,8.77-8.45,11.26c-4.78,2.82-10.61,3.62-15.89,1.84-1.83-.62-2.62,2.28-.8,2.89,10.8,3.64,23.7-2.41,27.47-13.23s-2.37-24.37-13.7-27.92c-3.45-1.08-7.25-1.24-10.75-.27-3.84,1.06-7.12,3.41-10.29,5.73-1.54,1.13-.05,3.73,1.51,2.59h0Z"/>
      <path style="fill: #e5694c" d="M807.8,335.41c4.71,5.18,11.63,7.39,18.46,7.85,3.79,.25,7.5-.13,11.27-.39,1.33-.09,2.32,.14,2.11,1.68s-1.75,2.6-2.9,3.51c-2.51,1.98-4.5,4.5-4.66,7.83-.13,2.75,1.36,5.23,3.93,6.25,2.31,.91,5.22,.49,6.67-1.68,.22-.33,1.12-2.96,1.45-2.94,.52,.03,.59,2.18,.61,2.63,.35,7.86,3.32,15.33,8.39,21.33,1.25,1.48,3.36-.65,2.12-2.12-4.54-5.37-7.2-12.19-7.51-19.21-.1-2.29-.7-5.76-3.72-5.63-1.35,.06-2.31,1.03-2.87,2.18-.49,1-.68,2.35-1.86,2.77-2.54,.9-4.48-1.61-4.18-3.93,.44-3.39,3.47-4.72,5.59-6.92,1.84-1.9,2.92-5.28,.88-7.48-1.06-1.14-2.56-1.37-4.05-1.26-1.87,.13-3.73,.35-5.6,.43-7.88,.35-16.43-.88-22.01-7-1.3-1.43-3.42,.7-2.12,2.12h0Z"/>
      <path style="fill: #e5694c" d="M747.59,343.16c12.27-2.71,23.23-10.17,30.55-20.35,2.1-2.92,3.86-6.06,5.26-9.36,.32-.75,.22-1.6-.54-2.05-.63-.38-1.74-.21-2.05,.54-6.04,14.22-18.92,24.99-34.02,28.33-1.88,.42-1.09,3.31,.8,2.89h0Z"/>
      <path style="fill: #e5694c" d="M738.83,311.87c13.44,1.51,27.16-.04,39.92-4.5,1.81-.63,1.03-3.53-.8-2.89-12.55,4.38-25.92,5.87-39.13,4.39-1.92-.22-1.9,2.79,0,3h0Z"/>
      <path style="fill: #321c0a" d="M852.04,380.6c-6.3-5.76-8.71-15.02-6.02-23.11,.4-1.19-1.44-1.67-1.86-.51-.88,2.43-2.29,5.45-4.78,6.59-2.73,1.25-5.03-.84-5.89-3.31-2.04-5.85,1.6-12.77,6.23-16.29,.87-.66,.37-1.96-.74-1.77-5.91,1.01-12,.94-17.88-.25-2.76-.56-5.51-1.33-8.12-2.39-2.35-.95-4.63-2.27-5.95-4.5-.63-1.07-2.3-.1-1.67,.98,2.89,4.88,9.61,6.59,14.78,7.69,6.38,1.35,12.94,1.44,19.36,.34l-.74-1.77c-5.64,4.28-10.03,12.94-6.54,19.85,1.43,2.83,4.54,4.53,7.64,3.31,3.26-1.28,5.05-4.88,6.18-7.97l-1.86-.51c-2.9,8.71-.26,18.8,6.51,24.99,.92,.84,2.29-.53,1.37-1.37h0Z"/>
      <path style="fill: #e89177" d="M782.6,422.51c-4.83-4.28-11.91-5.38-18.5-5.14-2.18,.08-4.53,.36-6.11,1.78l1.27,22.48c4.38,1.91,9.71,1.43,13.95-.76,4.24-2.18,7.43-5.91,9.39-10.06h.79c1.96,4.15,5.15,7.88,9.39,10.06,4.24,2.18,9.56,2.67,13.95,.76,0,0,7.06-5.01,30.77-10.76,0,0-19.32-24.76-48.78-12.25l-6.12,3.89Z"/>
      <path style="fill: #fff" d="M821.29,377.65c6.48,2.67,10.88,7.87,10.88,13.84,0,8.7-9.3,15.74-20.78,15.74s-20.78-7.05-20.78-15.74c0-5.14,3.25-9.7,8.27-12.57"/>
      <path style="fill: #fff" d="M777.34,375.62c6.48,2.67,10.88,7.87,10.88,13.84,0,8.7-9.3,15.74-20.78,15.74-3.99,0-7.72-.85-10.89-2.33l-1.31-15.15,22.11-12.1Z"/>
      <path style="fill: #a2a3ff" d="M746.81,343.73c27.44-4.57,39.9-36.81,39.9-36.81l-2.39,3.76c-10.21-7.79-15.46-21.57-13.02-34.17,.45-2.32,1.17-4.65,2.62-6.52,1.46-1.86,3.77-3.19,6.12-2.95l6.24,8.13c-.2-1.28-.41-2.55-.61-3.83-.44-2.79-.89-5.61-.76-8.43,.13-2.82,.87-5.69,2.58-7.94s4.51-3.78,7.32-3.51c2.97,.28,5.52,2.49,6.84,5.17s1.59,5.76,1.49,8.74c-.13,3.96-.87,7.91-2.18,11.65l-.31,.79c2.56-4.76,9.9-10.11,16.38-10.05,1.85,.02,3.73,.2,5.46,.72,5.86,1.76,8.99,7.54,7.37,12.38s-7.29,8.44-13.45,9.34l-10.17,2.48c3.04-1.54,6.44-2.25,9.83-2.53,3.53-.29,7.26-.09,10.33,1.68s5.25,5.45,4.34,8.88c-.94,3.53-4.62,5.57-8.12,6.65-4,1.23-8.46,1.69-12.3,.01l-.53-.72s1.52,57.41-55.89,81.29"/>
      <path style="fill: #a2a3ff" d="M538.84,270.06s-9.48-10.16-5.42-24.73c0,0,7.79,7.11,15.58,1.69,7.79-5.42,12.87-7.79,22.35-7.79,0,0,2.37-41.32,16.26-59.61,0,0,8.47,28.79,28.79,28.79,0,0,3.96-18.11,14.97-25.94,7.91-5.62,13.81-13.62,16.61-22.91l1.61-5.34s27.77,25.04,27.44,58.91c0,0,21.34,5.78,45.73-29.45,0,0,7.35,16.36,7.35,44.14,0,0,23.82-8.07,40.75,8.87,0,0-25.85,17.1-25.85,33.87,0,0,14.84,7.79,14.84,25.91h-29.81s3.43,4.48,7.9,16.2l5.86,18.27c7.2,26.52,14.52,70.96,14.52,141.99l-220.36,2.4,.87-205.28Z"/>
      <path style="fill: #8389ff" d="M567.28,309.79s-7.09-8.06-4.05-19.61c0,0,5.83,5.64,11.65,1.34,5.83-4.3,9.63-6.18,16.72-6.18,0,0,1.77-32.78,12.16-47.29,0,0,6.33,22.84,21.53,22.84,0,0,2.96-14.37,11.19-20.57,5.92-4.46,10.33-10.8,12.42-18.17l1.2-4.24s20.77,19.86,20.52,46.73c0,0,15.96,4.58,34.2-23.36,0,0,5.49,12.98,5.49,35.01,0,0,17.81-6.4,30.48,7.04,0,0-19.33,13.57-19.33,26.87,0,0,11.1,6.18,11.1,20.55h-22.29s2.56,3.55,5.91,12.85l4.38,14.5c5.38,21.03,10.86,56.29,10.86,112.63l-164.8,1.9,.65-162.83Z"/>
      <g style="opacity: .46">
        <path style="fill: #5767ff" d="M576.18,372.85s-5.86-5.05-3.35-12.29c0,0,4.81,3.54,9.63,.84,4.81-2.69,7.95-3.87,13.81-3.87,0,0,1.47-20.55,10.05-29.64,0,0,5.23,14.31,17.79,14.31,0,0,2.44-9.01,9.25-12.9,4.89-2.79,8.54-6.77,10.27-11.39l1-2.66s17.16,12.45,16.95,29.29c0,0,13.19,2.87,28.25-14.64,0,0,4.54,8.14,4.54,21.95,0,0,14.72-4.01,25.18,4.41,0,0-15.97,8.5-15.97,16.84,0,0,17.83-2.28,17.83,12.88h-27.08s2.12,2.23,4.88,8.05l3.62,9.09c4.45,13.18,8.97,35.28,8.97,70.6l-136.16,1.19,.54-102.07Z"/>
      </g>
      <path style="fill: #2b2b2b" d="M604.57,379.39c17.45,6.48,40.14,5.97,55.95-3.9,4.15-2.59,7.99-5.68,12.32-7.95,5.24-2.75,11.12-4.24,17.04-4.32,4.88-.06,10.09,.99,13.53,4.46,1.99,2,3.21,4.65,3.99,7.36,2.98,10.39-.39,21.95-7.17,30.37-6.78,8.42-16.6,13.97-26.87,17.36-23.9,7.9-51.28,4.46-72.49-9.09-1.7-1.09-3.4-2.27-4.95-3.58l-7.33-6.62"/>
      <path style="fill: #ff3e55" d="M705.21,396.47c-1.39,3.26-3.22,6.32-5.42,9.05-6.78,8.42-16.61,13.96-26.86,17.36-1.8,.59-3.62,1.12-5.45,1.58l-1.94-1.98c1.3-8.57,5.67-16.7,12.47-22.06,7.34-5.78,17.45-8.04,26.38-5.38l.83,1.42Z"/>
      <path style="fill: #ef0a31" d="M699.53,403.17c-.75,1.96-1.81,3.84-3.13,5.55-4.08,5.27-10.33,9.07-16.99,11.66-1.17,.45-2.35,.87-3.55,1.25l-1.4-1.02c.41-5.01,2.89-9.97,7.14-13.48,4.59-3.78,11.21-5.71,17.31-4.73l.63,.77Z"/>
      <path style="fill: #fff" d="M703.71,369.26l-.58,3.9c-.04,3.72-1.46,7.45-4.1,10.08-2.65,2.63-6.53,4.03-10.2,3.44l-.31-2.02c.11,1.82-.25,3.65-1.19,5.2-1.26,2.07-3.56,3.54-5.97,3.56-1.44,.02-2.83-.45-4.12-1.08-1.75-.85-3.35-2-4.71-3.38l.5,.65c.72,2.41,.61,5.13-.56,7.36-1.19,2.23-3.49,3.9-6.01,4.07-1.49,.09-2.97-.32-4.34-.9-3.4-1.4-6.3-3.89-8.33-6.93l1.17,2.56c-.04,2.81-1.08,5.67-3.09,7.63-2.02,1.98-5.04,2.97-7.77,2.29-1.62-.41-3.04-1.35-4.32-2.43-3.13-2.65-5.38-6.28-6.5-10.22l.68,2.73c-.04,2.81-1.08,5.67-3.09,7.63-2.02,1.98-5.04,2.97-7.77,2.29-1.62-.41-3.04-1.35-4.32-2.43-2.25-1.91-4.05-4.3-5.27-6.96-1.82-3.87-2.47-8.26-1.73-12.47l-5.15-1.93c17.44,6.48,37.88,4.5,53.69-5.36,4.16-2.59,7.99-5.69,12.33-7.95,5.24-2.75,11.12-4.25,17.04-4.32,4.88-.07,10.08,.99,13.51,4.44,.18,.18,.36,.36,.5,.56Z"/>
      <path style="fill: #fff" d="M282.1,354.06s-46.4,64.69-46.4,100.6c0,0-16.26,3.05-16.26,18.63h63.34"/>
      <path style="fill: #ffbb57" d="M285.99,354.06s-46.4,61.35-46.4,104.19c0,0-16.26-.55-16.26,15.03h63.34"/>
      <path style="fill: #f27e00" d="M299.6,354.06s-46.4,64.69-46.4,100.6c0,0-16.26,3.05-16.26,18.63h63.34"/>
      <path style="fill: #ffbb57" d="M423.34,276.08c-6.77-16.26-19.15-27.16-33.65-31.43l-.14,.6c1.44-18.8-9.57-29.04-9.57-29.04,.25,10.08-6.11,22.66-9.62,28.8l4.28-9.07c-2.09-6.54-6.86-13.63-6.86-13.63,1.82,11.73-12.28,23.29-12.28,23.29l-.53,.07c-88.15,27.19-90.5,227.96-90.5,227.96l156.82,.34,50.81-159.53-48.77-38.36Z"/>
      <g style="opacity: .67">
        <path style="fill: #f49314" d="M409.27,337.47c-4.67-11.21-13.21-18.73-23.21-21.68l-.1,.42c.99-12.97-6.6-20.03-6.6-20.03,.17,6.95-4.22,15.63-6.63,19.86l2.95-6.26c-1.44-4.51-4.73-9.4-4.73-9.4,1.26,8.09-8.47,16.06-8.47,16.06l-.36,.05c-60.8,18.75-62.42,157.24-62.42,157.24l108.17,.23,35.04-110.03-33.64-26.46Z"/>
      </g>
      <path style="fill: #f27e00" d="M396.53,384.65c-3.1-7.45-8.78-12.45-15.42-14.4l-.06,.28c.66-8.62-4.39-13.31-4.39-13.31,.11,4.62-2.8,10.39-4.41,13.2l1.96-4.16c-.96-3-3.14-6.25-3.14-6.25,.83,5.38-5.63,10.67-5.63,10.67l-.24,.03c-40.4,12.46-41.48,104.48-41.48,104.48l71.88,.16,23.29-73.12-22.35-17.58Z"/>
      <path style="fill: #2b2b2b" d="M393.9,407.15c-20.37,3.12-42.5-.59-58.47-13.62-4.6-3.76-8.71-8.35-10.8-13.91s-1.91-12.19,1.49-17.06c4.47-6.41,13.32-8.34,21.06-7.23,7.74,1.11,14.88,4.64,22.31,7.09s15.79,3.76,22.88,.48"/>
      <path style="fill: #1c1c1c" d="M393.25,399.38c-12.8,1.22-26.7-.23-36.73-5.34-2.89-1.47-5.47-3.27-6.79-5.45s-1.2-4.78,.94-6.69c2.81-2.51,8.37-3.27,13.23-2.83s9.35,1.82,14.01,2.78c4.66,.96,9.92,1.47,14.37,.19"/>
      <polygon style="fill: #ff6470" points="324.53 377.02 331.85 390.31 337.99 396.99 353.87 404.74 358.98 406.65 357.29 394.2 346.63 376.16 326.12 362.55 323.26 371.39 324.53 377.02"/>
      <path style="fill: #ff3e55" d="M326.42,380.45l5.2,9.43,4.36,4.75,11.27,5.5,3.63,1.35-.35-2.59c-.56-4.13-1.94-8.1-4.05-11.68h0c-2.86-4.83-6.96-8.8-11.89-11.49l-10.19-5.56,1.13,6.28,.9,4Z"/>
      <path style="fill: #ed0028" d="M346.24,401.48l-.29-2.13c-.46-3.4-1.6-6.68-3.35-9.64h0c-2.36-3.98-5.75-7.26-9.81-9.48l-8.4-4.58,2.41,7.75,8.62,10.12,10.81,7.96Z"/>
      <path style="fill: #fff" d="M608.92,314.7c0,9.99-2.66,18.95-6.85,24.95-1.03,1.47-2.95,2.1-4.58,1.35-2.98-1.38-6.45-2.17-10.16-2.17-2.49,0-4.86,.36-7.06,1-1.62,.48-3.39-.1-4.27-1.54-3.68-5.96-5.96-14.32-5.96-23.59,0-18.08,8.71-32.75,19.43-32.75s19.45,14.66,19.45,32.75Z"/>
      <path style="fill: #ffbb57" d="M416.99,263.63l13.97-21.67c1.4-2.17,3.8-3.48,6.38-3.48h0c4.19,0,7.59,3.4,7.59,7.59v13.18c0,3.78-1.5,7.4-4.17,10.07h0c-2.54,2.54-5.96,4.03-9.55,4.16l-8.38,.3"/>
      <path style="fill: none; stroke-linecap: round; stroke-linejoin: round; stroke-width: 2px; stroke: #f27e00" d="M420.24,266.09s.77,1.19,2.1,3.89"/>
      <line style="fill: none; stroke-linecap: round; stroke-linejoin: round; stroke: #fff; stroke-width: 2px" x1="422.34" y1="261.71" x2="432.64" y2="245.66"/>
      <line style="fill: none; stroke-linecap: round; stroke-linejoin: round; stroke: #fff; stroke-width: 3px" x1="296.75" y1="312.89" x2="292.26" y2="325"/>
      <path style="fill: #fff" d="M392.52,386.67s1.1-23.21,1.36-24.48l-1.24,.86c-7.1,3.28-15.46,1.97-22.88-.48s-14.57-5.98-22.31-7.09c-7.74-1.11-16.58,.82-21.06,7.23l.69-.36c0,5.08,5.42,9.2,12.11,9.2s12.11-4.12,12.11-9.2l-.97,5.74c1.09,3.44,4.63,5.79,8.23,5.97s7.14-1.58,9.61-4.21l-2.83,3.34c1.8,2.62,5.04,4.18,8.21,3.96,3.17-.22,6.16-2.22,7.58-5.06l-2.24,3.76c1.52,2.43,4.81,3.29,7.6,2.65,2.79-.65,5.14-2.52,7.12-4.58"/>
      <polygon style="fill: #ff8e1d" points="323.09 308.34 323.09 281.92 360 269.73 360 295.81 323.09 308.34"/>
      <polyline style="fill: #ff8e1d" points="403.97 276.64 383.04 269.73 383.04 295.81 419.96 308.34 419.96 298.3"/>
      <path style="fill: #ffbb57" d="M261.76,261.49c-1.96-3.47-1.73-7.9,.93-10.86,2.04-2.26,5.56-3.91,11.63-2.93,14.56,2.37,40.64,25.4,40.64,25.4l-6.04,10.36c-2.67,.94-7.96,2.12-18.34,2.85-.08,0-.15,.01-.23,.01-8.73,.54-16.93-4.22-21.23-11.84l-7.35-13.01Z"/>
      <path style="fill: #f49314; opacity: .39" d="M269.47,265.47c-1.6-2.83-1.42-6.45,.76-8.87,1.67-1.85,4.54-3.2,9.49-2.39,11.89,1.94,33.19,20.75,33.19,20.75l-4.94,8.46c-2.18,.77-6.5,1.73-14.98,2.33-.06,0-.12,0-.19,.01-7.13,.44-13.83-3.45-17.34-9.67l-6.01-10.62Z"/>
      <path style="fill: #f27e00" d="M282.69,270.24c-1.06-1.88-.94-4.28,.5-5.88,1.1-1.23,3.01-2.12,6.3-1.58,7.89,1.28,22.01,13.76,22.01,13.76l-3.27,5.61c-1.45,.51-4.31,1.15-9.94,1.54-.04,0-.08,0-.12,0-4.73,.29-9.17-2.29-11.5-6.41l-3.98-7.05Z"/>
      <path style="fill: #cacad8" d="M406.34,351.87h164.56c6.88,0,12.46,5.58,12.46,12.46v109.9h-189.48v-109.9c0-6.88,5.58-12.46,12.46-12.46Z"/>
      <path style="fill: #8c8caf; opacity: .5" d="M583.83,404.18v70.05h-188.94v-12.94c83.31-2.06,149.87-1.05,188.94-57.11Z"/>
      <path style="fill: #8c8caf; opacity: .21" d="M582.82,356.84v113.33h-188.94v-20.93c83.31-3.34,149.87-1.69,188.94-92.4Z"/>
      <path style="fill: #7dddff" d="M583.21,406.22c26.76-16.6,38.95-79.93,38.95-79.93l1.02-.8c5.13,1.77,11.16,.6,15.27-2.95,2.63-2.28,4.49-6.2,2.76-9.22-1.35-2.36-4.28-3.21-6.94-3.71l-8.78-1.16c2.75,1.23,6.03,1.34,8.75,.06s4.79-3.98,5.07-6.97c.34-3.67-2.07-7.3-5.41-8.85-3.35-1.55-7.4-1.15-10.66,.57l-6.25,7.64c1.19-1.5,2.39-3.01,3.58-4.51,1.69-2.13,3.45-4.44,3.61-7.15,.22-3.68-3.17-7.17-6.86-7.05-2.24,.07-4.34,1.3-5.84,2.98-1.49,1.68-2.43,3.78-3.12,5.91-1.16,3.59-1.66,7.39-1.48,11.16l1.33,6.11c-.23-3.27-1.35-6.68-3.94-8.69s-6.85-2.01-8.79,.63c-.66,.89-1,1.98-1.14,3.08-.41,3.08,.65,6.21,2.33,8.83s3.95,4.79,6.2,6.93l-.37,.72s-9.82,27.77-26.08,33.53l6.69,7.54,.08,45.3Z"/>
      <path style="fill: #006082" d="M435.2,285.65l-3.68-3.8c-5.56-5.74-13.53-8.48-21.44-7.35h0s0,0,0,0h0c-9,1.8-9.99,8.82-7.77,13.26l.57,1.14h0c4.45,7.79,14.54,8.98,23.5,8.96h3.39"/>
      <path style="fill: #00323d; opacity: .43" d="M432.64,289.75l-1.87-1.94c-2.83-2.92-6.89-4.31-10.92-3.74h0s0,0,0,0c-4.58,.92-5.08,4.49-3.95,6.75l.29,.58h0c2.26,3.96,7.4,4.57,11.96,4.56h1.73"/>
      <path style="fill: #006082" d="M544.6,277.18l6.03-7.87c5.56-5.74,13.53-8.48,21.44-7.35h0s0,0,0,0h0c9,1.8,9.99,8.82,7.77,13.26l-.57,1.14h0c-4.45,7.79-14.54,8.98-23.5,8.96l-4.56,.84"/>
      <path style="fill: #49cef2" d="M484.65,352.03h-61.31s-3.39-50.81,16.26-73.5c19.64-22.69,28.45-22.02,36.24-22.02l2.03-12.19-1.69-6.1,7.79,10.5,3.05,7.45,3.39-13.55v-11.85l-2.71-10.5,9.15,7.79,2.37,8.81,4.06,9.15v7.45l3.73,1.35,9.82-10.84,5.08-9.82,2.03,6.1,2.37,11.52-2.03,9.15,10.5,6.1,12.53,12.19,9.15,19.64,3.39,14.56,2.71,19.98,.68,17.27-78.58,1.35Z"/>
      <path style="fill: #0099ce" d="M561.87,323.92l1.36,26.76-78.58,1.35-61.99-.34,69.38-6.49c23.52-2.2,46.38-8.98,67.3-19.96l2.53-1.33Z"/>
      <path style="fill: #0099ce; opacity: .44" d="M554.2,293.49h0s6.44,24.88,6.44,24.88l2.59,32.31-78.58,1.35-61.99-.34,19.32-3.88c28.66-5.76,56.74-14.14,83.86-25.05h0c13.17-5.3,23.48-15.93,28.36-29.27Z"/>
      <path style="fill: #fff" d="M474.49,329.34s-7.62-4.57-17.61,1.19l-4.4-6.1,1.02-9.31,5.93-6.6,7.45-1.02,5.93,2.37,3.39,4.23,1.69,6.6-1.35,5.76-2.03,2.88Z"/>
      <path style="fill: #fff" d="M509.2,329.34s7.62-4.57,17.61,1.19l4.4-6.1-1.02-9.31-5.93-6.6-7.45-1.02-5.93,2.37-3.39,4.23-1.69,6.6,1.35,5.76,2.03,2.88Z"/>
      <path style="fill: none; stroke-linecap: round; stroke-linejoin: round; stroke: #070707; stroke-width: 1.5px" d="M409.62,295.02c4.88,2.37,11.05,2.85,16.77,2.83h3.39"/>
      <path style="fill: none; stroke-linecap: round; stroke-linejoin: round; stroke-width: 2px; stroke: #321c0a" d="M546.53,274.84l3.44-4.02c5.19-6.08,12.98-9.3,20.94-8.66h0s0,0,0,0c9.09,1.24,10.51,8.18,8.58,12.75l-.5,1.17h0c-3.96,8.05-13.95,9.87-22.9,10.4l-3.39,.2"/>
      <g>
        <path style="fill: #006082" d="M445.95,304.44v-14.48s10.92-14.48,39.12-14.48v20.58s-23.88-1.27-39.12,8.38Z"/>
        <path style="fill: #006082" d="M536.64,304.44v-14.48s-10.92-14.48-39.12-14.48v20.58s23.88-1.27,39.12,8.38Z"/>
      </g>
      <rect style="fill: #070707" x="112.35" y="401.92" width="10.45" height="28.07" rx="5.23" ry="5.23"/>
      <rect style="fill: #070707" x="145.54" y="401.92" width="10.45" height="28.07" rx="5.23" ry="5.23"/>
      <path style="fill: #fff" d="M367.27,328.28c0,5.47-2.38,10.42-6.16,13.8-3.01-2.14-6.66-3.36-10.63-3.36-4.81,0-9.2,1.82-12.51,4.84-4.84-3.36-8.01-8.94-8.01-15.29,0-10.31,8.36-18.67,18.64-18.67s18.67,8.36,18.67,18.67Z"/>
      <path style="fill: #fff" d="M380.13,328.28c0,5.47,2.38,10.42,6.16,13.8,3.01-2.14,6.66-3.36,10.63-3.36,4.81,0,9.2,1.82,12.51,4.84,4.84-3.36,8.01-8.94,8.01-15.29,0-10.31-8.36-18.67-18.64-18.67-10.31,0-18.67,8.36-18.67,18.67Z"/>
      <path style="fill: none; stroke-linecap: round; stroke-linejoin: round; stroke: #070707; stroke-width: 1.5px" d="M499.72,337.64s8.64-2.37,11.85,6.27"/>
      <path style="fill: none; stroke-linecap: round; stroke-linejoin: round; stroke: #070707; stroke-width: 1.5px" d="M506.66,338.31s-1.86,13.38-18.8,13.38"/>
      <g>
        <path style="fill: none; stroke-linecap: round; stroke-linejoin: round; stroke: #070707; stroke-width: 2px" d="M602.52,319.85s-9.82,27.77-26.08,33.53"/>
        <path style="fill: none; stroke-linecap: round; stroke-linejoin: round; stroke: #070707; stroke-width: 2px" d="M622.16,326.29s-12.19,63.34-38.95,79.93"/>
        <path style="fill: #070707" d="M603.69,318.34c-2.58-2.45-5.22-4.95-6.86-8.15-1.36-2.65-2.44-6.97-.21-9.49,1.66-1.87,4.77-1.65,6.7-.36,2.58,1.72,3.56,5.09,3.79,8.01,.11,1.43,2.36,1.45,2.25,0-.23-2.93-1.02-5.83-2.91-8.14-1.67-2.05-4.26-3.27-6.92-3.09-2.85,.19-5.14,1.9-5.98,4.66-.95,3.12-.17,6.56,1.25,9.4,1.72,3.43,4.54,6.15,7.29,8.75,1.05,1,2.64-.59,1.59-1.59h0Z"/>
        <path style="fill: #070707" d="M608.03,302.24c-.14-3.37,.23-6.72,1.17-9.96,.81-2.79,2.02-5.74,4.42-7.54,2.21-1.66,5.11-1.98,7.32-.14,2.09,1.74,2.65,4.38,1.59,6.85-.65,1.52-1.7,2.86-2.72,4.14-1.19,1.51-2.39,3.01-3.58,4.51-.89,1.12,.69,2.73,1.59,1.59,1.26-1.59,2.53-3.17,3.78-4.77,1.07-1.36,2.15-2.75,2.87-4.34,1.38-3.06,1.05-6.36-1.23-8.89-2.15-2.38-5.5-3.26-8.51-2.11-3.35,1.29-5.47,4.22-6.78,7.44-1.69,4.15-2.34,8.74-2.16,13.2,.06,1.44,2.31,1.45,2.25,0h0Z"/>
        <path style="fill: #070707" d="M623.83,294.24c4.15-2.14,9.7-1.94,12.74,1.98,1.29,1.66,1.99,3.88,1.53,5.97s-1.9,3.96-3.78,5.04c-2.48,1.42-5.66,1.39-8.25,.27-.56-.24-1.2-.16-1.54,.4-.28,.47-.15,1.3,.4,1.54,2.92,1.26,6.25,1.55,9.24,.34,2.64-1.07,4.74-3.19,5.75-5.86,2.06-5.45-1.87-11.33-7.19-12.84-3.36-.96-6.98-.36-10.05,1.23-1.29,.66-.15,2.61,1.14,1.94h0Z"/>
        <path style="fill: #070707" d="M622.86,326.66c4.88,1.63,10.5,.89,14.78-1.98,3.9-2.61,7.55-8.3,4.11-12.72-1.71-2.2-4.54-3.02-7.15-3.52-1.53-.29-2.18,2.05-.65,2.34,2.27,.44,5.23,1.08,6.34,3.38s-.28,5.01-1.84,6.7c-3.7,3.99-9.89,5.15-14.94,3.46-1.49-.5-2.12,1.85-.65,2.34h0Z"/>
      </g>
      <path style="fill: none; stroke-linecap: round; stroke-linejoin: round; stroke: #070707; stroke-width: 2px" d="M242.74,420.13c-5.16,12.39-8.73,24.57-8.73,34.53,0,0-16.26,3.05-16.26,18.63"/>
      <path style="fill: none; stroke-linecap: round; stroke-linejoin: round; stroke: #070707; stroke-width: 2px" d="M253.28,398.08c-2.7,5.07-5.33,10.32-7.73,15.6"/>
      <path style="fill: none; stroke-linecap: round; stroke-linejoin: round; stroke: #070707; stroke-width: 2px" d="M280.41,354.06s-12,16.73-23.8,37.9"/>
      <path style="fill: none; stroke-linecap: round; stroke-linejoin: round; stroke: #070707; stroke-width: 2px" d="M444.94,255.37v3.88c0,3.78-1.5,7.4-4.17,10.07h0c-2.54,2.54-5.96,4.03-9.55,4.16l-8.38,.3"/>
      <path style="fill: none; stroke-linecap: round; stroke-linejoin: round; stroke: #070707; stroke-width: 2px" d="M416.99,263.63l13.97-21.67c1.4-2.17,3.8-3.48,6.38-3.48h0c4.19,0,7.59,3.4,7.59,7.59v2.49"/>
      <polyline style="fill: none; stroke-linecap: round; stroke-linejoin: round; stroke: #070707; stroke-width: 2px" points="403.97 276.64 383.04 269.73 383.04 278.73"/>
      <path style="fill: #070707" d="M364.1,373.61c2.09,2.95,5.64,4.81,9.3,4.5s6.8-2.44,8.43-5.61c.66-1.28-1.28-2.42-1.94-1.14-1.26,2.44-3.72,4.24-6.49,4.49s-5.71-1.08-7.35-3.39c-.83-1.17-2.78-.05-1.94,1.14h0Z"/>
      <path style="fill: #070707" d="M377.65,376.27c1.71,2.61,4.89,3.72,7.91,3.33,3.41-.44,6.25-2.63,8.57-5.04,1.01-1.04-.58-2.63-1.59-1.59-1.91,1.98-4.15,3.83-6.92,4.36-2.17,.41-4.77-.27-6.03-2.2-.79-1.21-2.74-.08-1.94,1.14h0Z"/>
      <path style="fill: none; stroke-linecap: round; stroke-linejoin: round; stroke: #070707; stroke-width: 2.09px" d="M337.12,371.39s24.24,8.33,22.21,33.99"/>
      <path style="fill: #070707" d="M56.37,473.15c-10.44-12.5-13.81-30.4-8.64-45.84,2.92-8.73,8.32-16.4,11.01-25.22s2.57-18.51,.91-27.68c-1.96-10.77-5.87-21.08-9.87-31.23l-1.08,1.42c16.54,1.01,32.55,8.05,44.65,19.35,3.41,3.18,6.5,6.69,9.2,10.49,.83,1.17,2.79,.05,1.94-1.14-9.97-13.98-24.86-24.2-41.44-28.63-4.69-1.25-9.51-2.02-14.35-2.32-.68-.04-1.35,.76-1.08,1.42,6.94,17.63,14.59,37.51,9.28,56.61-2.52,9.07-8.04,16.9-11.13,25.75-2.69,7.7-3.28,16.03-2.03,24.07,1.39,9,5.21,17.54,11.05,24.54,.93,1.11,2.51-.49,1.59-1.59h0Z"/>
      <path style="fill: none; stroke-linecap: round; stroke-linejoin: round; stroke: #070707; stroke-width: 2px" d="M145,374.25c2.79-5.33,19.89-35.09,54.12-35.09,0,0-9.54,15.63-13.96,36.1-3.56,16.52-.28,33.66,8.03,48.38,6.73,11.93,12.38,31.69-7.96,49.65"/>
      <path style="fill: none; stroke-linecap: round; stroke-linejoin: round; stroke: #070707; stroke-width: 2px" d="M26.04,414.69s19.64,24.73,68.76,21.68"/>
      <line style="fill: none; stroke-linecap: round; stroke-linejoin: round; stroke: #070707; stroke-width: 2px" x1="12.15" y1="442.8" x2="87.35" y2="442.8"/>
      <path style="fill: none; stroke-linecap: round; stroke-linejoin: round; stroke: #070707; stroke-width: 2px" d="M21.64,465.5s28.45-14.9,56.23-14.9"/>
      <line style="fill: none; stroke-linecap: round; stroke-linejoin: round; stroke: #070707; stroke-width: 2px" x1="177.78" y1="445.18" x2="225.54" y2="445.18"/>
      <path style="fill: none; stroke-linecap: round; stroke-linejoin: round; stroke: #070707; stroke-width: 2px" d="M172.36,437.05s50.81-2.03,68.42-26.42"/>
      <path style="fill: none; stroke-linecap: round; stroke-linejoin: round; stroke: #070707; stroke-width: 2px" d="M177.78,453.64s21.34,2.03,32.52,13.21"/>
      <path style="fill: none; stroke-linecap: round; stroke-linejoin: round; stroke: #070707; stroke-width: 1.5px" d="M102.93,442.97s3.05,9.15,14.9,9.15,14.56-9.31,14.56-16.77"/>
      <path style="fill: none; stroke-linecap: round; stroke-linejoin: round; stroke: #070707; stroke-width: 1.5px" d="M161.86,442.97s-3.05,9.15-14.9,9.15c-11.85,0-14.56-9.31-14.56-16.77"/>
      <g>
        <path style="fill: none; stroke-linecap: round; stroke-linejoin: round; stroke: #070707; stroke-width: 1.47px" d="M133.41,419.9c-.21,.92-.49,1.81-.83,2.66-2.58,6.59-8.63,11.22-15.68,11.22-9.4,0-17.02-8.22-17.02-18.37s7.62-18.37,17.02-18.37c7.3,0,13.53,4.97,15.95,11.94,.2,.58,.37,1.17,.52,1.77"/>
        <path style="fill: none; stroke-linecap: round; stroke-linejoin: round; stroke: #070707; stroke-width: 1.47px" d="M133.27,410.48c2-7.75,8.58-13.43,16.4-13.43,9.4,0,17.02,8.22,17.02,18.37s-7.62,18.37-17.02,18.37c-7.78,0-14.34-5.64-16.37-13.33"/>
      </g>
      <path style="fill: none; stroke-linecap: round; stroke-linejoin: round; stroke: #070707; stroke-width: 1.67px" d="M193.19,423.64s24.64-26.39,24.64-66.02"/>
      <path style="fill: none; stroke-linecap: round; stroke-linejoin: round; stroke: #070707; stroke-width: 1.67px" d="M238.41,363.21s1.69,62.66-11.52,94.5"/>
      <g>
        <path style="fill: none; stroke-linecap: round; stroke-linejoin: round; stroke: #070707; stroke-width: 1.67px" d="M254.41,342.12c0-11.78-9.55-21.34-21.34-21.34s-21.34,9.55-21.34,21.34c0,8.11,4.53,15.17,11.19,18.78"/>
        <path style="fill: none; stroke-linecap: round; stroke-linejoin: round; stroke: #070707; stroke-width: 1.67px" d="M254.3,346.55c-.06,7.15-5.91,12.91-13.06,12.85-7.15-.06-12.91-5.91-12.85-13.06"/>
      </g>
      <g>
        <path style="fill: none; stroke-linecap: round; stroke-linejoin: round; stroke: #070707; stroke-width: 1.47px" d="M219.44,465.5s8.13-1.02,12.19,3.39"/>
        <path style="fill: none; stroke-linecap: round; stroke-linejoin: round; stroke: #070707; stroke-width: 1.47px" d="M225.2,459.06s8.13-1.02,12.19,3.39"/>
      </g>
      <path style="fill: none; stroke-linecap: round; stroke-linejoin: round; stroke: #070707; stroke-width: 1.47px" d="M241.54,341.79s7.11,1.14,10.92-5.97"/>
      <path style="fill: none; stroke-linecap: round; stroke-linejoin: round; stroke: #070707; stroke-width: 1.47px" d="M239.43,349.11s8,2.54,8,8.76"/>
      <path style="fill: none; stroke-linecap: round; stroke-linejoin: round; stroke: #070707; stroke-width: 1.47px" d="M248.06,328.59s-4.25,3.1-8.51,2.57"/>
      <path style="fill: none; stroke-linecap: round; stroke-linejoin: round; stroke: #070707; stroke-width: 2px" d="M512.43,143.05c0,31.06-25.17,56.23-56.23,56.23-1.94,0-3.85-.09-5.74-.29h-.02l-32.17,22.64,6.06-32.24c-14.72-10.15-24.36-27.12-24.36-46.33,0-31.06,25.17-56.23,56.23-56.23s56.23,25.17,56.23,56.23Z"/>
      <line style="fill: none; stroke-linecap: round; stroke-linejoin: round; stroke: #070707; stroke-width: 2px" x1="461.61" y1="191.15" x2="450.45" y2="199"/>
      <line style="fill: none; stroke-linecap: round; stroke-linejoin: round; stroke: #070707; stroke-width: 2px" x1="427.06" y1="174.88" x2="424.33" y2="189.39"/>
      <path style="fill: none; stroke-linecap: round; stroke-linejoin: round; stroke: #070707; stroke-width: 1.91px" d="M668.39,64.05c0,18.36-7.84,34.89-20.37,46.42v34.61l-29.48-19.35c-4.26,.93-8.7,1.41-13.23,1.41-34.84,0-63.09-28.25-63.09-63.09S570.48,.96,605.32,.96s63.07,28.25,63.07,63.09Z"/>
      <g>
        <path style="fill: none; stroke-linecap: round; stroke-linejoin: round; stroke: #070707; stroke-width: 1.43px" d="M428.93,115.45h26.38"/>
        <path style="fill: none; stroke-linecap: round; stroke-linejoin: round; stroke: #070707; stroke-width: 1.43px" d="M428.93,126.45h44.37"/>
        <path style="fill: none; stroke-linecap: round; stroke-linejoin: round; stroke: #070707; stroke-width: 1.43px" d="M428.93,148.47h49.77"/>
        <path style="fill: none; stroke-linecap: round; stroke-linejoin: round; stroke: #070707; stroke-width: 1.43px" d="M428.93,159.48h33.57"/>
        <path style="fill: none; stroke-linecap: round; stroke-linejoin: round; stroke: #070707; stroke-width: 1.43px" d="M428.93,137.37c1.35,0,61.24,.17,61.24,.17"/>
      </g>
      <g>
        <path style="fill: none; stroke-linecap: round; stroke-linejoin: round; stroke: #070707; stroke-width: 1.43px" d="M583.38,45.33h26.38"/>
        <path style="fill: none; stroke-linecap: round; stroke-linejoin: round; stroke: #070707; stroke-width: 1.43px" d="M583.38,56.34h44.37"/>
        <path style="fill: none; stroke-linecap: round; stroke-linejoin: round; stroke: #070707; stroke-width: 1.43px" d="M583.38,78.36h49.77"/>
        <path style="fill: none; stroke-linecap: round; stroke-linejoin: round; stroke: #070707; stroke-width: 1.43px" d="M583.38,89.36h33.57"/>
        <path style="fill: none; stroke-linecap: round; stroke-linejoin: round; stroke: #070707; stroke-width: 1.43px" d="M583.38,67.26c1.35,0,61.24,.17,61.24,.17"/>
      </g>
      <g>
        <path style="fill: none; stroke-linecap: round; stroke-linejoin: round; stroke: #070707; stroke-width: 2px" d="M787.39,307.6s-12.47,32.24-39.9,36.81"/>
        <path style="fill: none; stroke-linecap: round; stroke-linejoin: round; stroke: #070707; stroke-width: 2px" d="M810.48,307.32s1.52,57.41-55.89,81.29"/>
        <path style="fill: none; stroke-linecap: round; stroke-linejoin: round; stroke: #070707; stroke-width: 2px" d="M811.02,308.05c3.84,1.67,8.29,1.21,12.3-.01,3.5-1.07,7.18-3.11,8.12-6.65,.91-3.42-1.27-7.11-4.34-8.88s-6.8-1.97-10.33-1.68c-3.39,.28-6.8,.99-9.83,2.53"/>
        <path style="fill: none; stroke-linecap: round; stroke-linejoin: round; stroke: #070707; stroke-width: 2px" d="M801.34,278.49c2.56-4.76,9.9-10.11,16.38-10.05,1.85,.02,3.73,.2,5.46,.72,5.86,1.76,8.99,7.54,7.37,12.38s-7.29,8.44-13.45,9.34"/>
        <path style="fill: none; stroke-linecap: round; stroke-linejoin: round; stroke: #070707; stroke-width: 2px" d="M786.97,275.86c-.2-1.28-.41-2.55-.61-3.83-.44-2.79-.89-5.61-.76-8.43,.13-2.82,.87-5.69,2.58-7.94s4.51-3.78,7.32-3.51c2.97,.28,5.52,2.49,6.84,5.17s1.59,5.76,1.49,8.74c-.13,3.96-.87,7.91-2.18,11.65"/>
        <path style="fill: #070707" d="M785.57,310.39c-10-7.72-15.17-21.56-12.28-33.92,.85-3.65,3.09-7.9,7.44-7.62,1.45,.1,1.44-2.16,0-2.25-8.41-.55-10.4,10.22-10.46,16.52-.07,7.16,2.08,14.34,5.97,20.34,2.21,3.41,4.98,6.38,8.2,8.87,1.15,.88,2.27-1.07,1.14-1.94h0Z"/>
      </g>
      <rect style="fill: #070707" x="764.85" y="381.18" width="10.45" height="21.65" rx="5.23" ry="5.23" transform="translate(1540.14 784.02) rotate(180)"/>
      <rect style="fill: #070707" x="804.24" y="381.18" width="10.45" height="21.65" rx="5.23" ry="5.23" transform="translate(1618.94 784.02) rotate(180)"/>
      <path style="fill: #fff" d="M695.36,315.37c0,9.99-2.66,18.95-6.85,24.95-1.03,1.47-2.95,2.1-4.58,1.35-2.98-1.38-6.45-2.17-10.16-2.17-2.49,0-4.86,.36-7.06,1-1.62,.48-3.39-.1-4.27-1.54-3.68-5.96-5.96-14.32-5.96-23.59,0-18.08,8.71-32.75,19.43-32.75s19.45,14.66,19.45,32.75Z"/>
      <path style="fill: none; stroke-linecap: round; stroke-linejoin: round; stroke-width: 2px; stroke: #321c0a" d="M588.46,339.5c-2.49,0-4.86,.36-7.06,1-1.62,.48-3.39-.1-4.27-1.54-3.68-5.96-5.96-14.32-5.96-23.59,0-18.08,8.71-32.75,19.43-32.75,5.37,0,10.23,3.67,13.75,9.59"/>
      <path style="fill: none; stroke-linecap: round; stroke-linejoin: round; stroke: #070707; stroke-width: 2px" d="M628.94,357.11s15.58,4.06,16.94-10.16"/>
      <path style="fill: none; stroke-linecap: round; stroke-linejoin: round; stroke-width: 2px; stroke: #321c0a" d="M725.89,230.35s-5.48,2.87-9.81,6.68"/>
      <path style="fill: none; stroke-linecap: round; stroke-linejoin: round; stroke-width: 2px; stroke: #321c0a" d="M740.36,269.34s-5.9-1.85-11.66-2.21"/>
      <circle style="fill: #070707" cx="740.8" cy="321.63" r="2.62"/>
      <path style="fill: #070707" d="M610.9,382.5c-1.02,6.05,.49,12.36,4.22,17.25,1.85,2.43,4.28,4.75,7.21,5.78s6.15,.29,8.55-1.52c2.9-2.19,4.32-5.72,4.42-9.28,.04-1.45-2.21-1.45-2.25,0-.1,3.45-1.76,6.94-5.05,8.38s-6.48-.01-8.97-2.36c-4.72-4.44-7.04-11.26-5.96-17.66,.24-1.42-1.93-2.03-2.17-.6h0Z"/>
      <path style="fill: #070707" d="M632.4,392.3c.91,3.12,2.43,6.02,4.55,8.49,1.97,2.3,4.63,4.56,7.71,5.07s6.06-.61,8.2-2.7c2.26-2.2,3.34-5.33,3.43-8.44,.04-1.45-2.21-1.45-2.25,0-.07,2.52-.94,5.05-2.77,6.84s-4.55,2.63-7.02,1.89-4.59-2.82-6.16-4.8-2.79-4.44-3.52-6.96c-.41-1.39-2.58-.8-2.17,.6h0Z"/>
      <path style="fill: #070707" d="M653.13,392.68c1.59,2.35,3.59,4.37,5.98,5.9s5.36,2.78,8.24,2.35c2.53-.37,4.78-2.04,6.05-4.23,1.46-2.53,1.59-5.61,.8-8.38-.36-1.24-2.3-.71-1.94,.54,.65,2.25,.61,4.76-.59,6.83-1.06,1.83-3.02,3.24-5.17,3.32-2.4,.09-4.8-1.11-6.75-2.41s-3.58-3-4.88-4.92c-.72-1.07-2.47-.06-1.74,1.02h0Z"/>
      <path style="fill: #070707" d="M669.02,384.71c1.39,2.33,3.22,4.36,5.43,5.95s4.94,2.93,7.67,2.68c2.5-.23,4.73-1.7,6.1-3.78,1.55-2.35,1.79-5.31,1.18-8-.28-1.21-2.14-.7-1.86,.51,.5,2.2,.28,4.59-.98,6.51-1.16,1.75-3.19,2.94-5.31,2.84-2.28-.1-4.56-1.44-6.31-2.82s-3.12-3.01-4.23-4.88c-.64-1.07-2.31-.1-1.67,.98h0Z"/>
      <path style="fill: #321c0a" d="M832.84,298.85c9.37-.86,22.22,3.99,24.65,14.11,.29,1.21,2.15,.7,1.86-.51-2.62-10.93-16.28-16.46-26.51-15.53-1.23,.11-1.24,2.05,0,1.93h0Z"/>
      <path style="fill: #321c0a" d="M860.24,318.21c-.41-2.16-.69-4.34-.81-6.53-.09-1.68-.19-3.44,.15-5.1,.29-1.45,.95-2.99,2.42-3.59s3.13-.07,4.31,.82c2.92,2.2,2.91,6.62,2.59,9.89-.39,3.93-1.71,7.72-3.75,11.09-.68,1.13,1.08,2.15,1.76,1.03,1.9-3.14,3.22-6.63,3.79-10.27,.53-3.37,.69-7.1-.75-10.27-1.21-2.66-3.88-4.71-6.9-4.56s-4.99,2.76-5.48,5.63c-.69,4.03-.04,8.43,.72,12.4,.25,1.29,2.21,.74,1.96-.54h0Z"/>
      <path style="fill: #321c0a" d="M867.32,323.01c10.24,12.23,15.05,28.6,13.58,44.44-.42,4.55-1.4,9.03-2.87,13.35-.4,1.18,1.46,1.69,1.86,.51,5.33-15.65,3.87-33.27-3.52-48.01-2.09-4.18-4.68-8.08-7.68-11.66-.8-.95-2.16,.42-1.37,1.37h0Z"/>
      <path style="fill: none; stroke-linecap: round; stroke-linejoin: round; stroke-width: 2px; stroke: #321c0a" d="M848.66,386.49c4.16-4.72,10.25-7.7,17.04-7.7,12.53,0,22.69,10.16,22.69,22.69s-10.16,22.69-22.69,22.69c-4.52,0-8.73-1.32-12.27-3.6"/>
      <path style="fill: none; stroke-linecap: round; stroke-linejoin: round; stroke-width: 2px; stroke: #321c0a" d="M852.83,401.48c.58-3.14,2.46-6.02,5.1-7.8s6.02-2.45,9.14-1.81"/>
      <path style="fill: none; stroke-linecap: round; stroke-linejoin: round; stroke-width: 2px; stroke: #321c0a" d="M858.28,394.67c2.85,3.22,4.74,7.29,5.35,11.56"/>
      <path style="fill: none; stroke-linecap: round; stroke-linejoin: round; stroke: #070707; stroke-width: 2px" d="M821.29,377.65c6.48,2.67,10.88,7.87,10.88,13.84,0,8.7-9.3,15.74-20.78,15.74s-20.78-7.05-20.78-15.74c0-5.14,3.25-9.7,8.27-12.57"/>
      <path style="fill: none; stroke-linecap: round; stroke-linejoin: round; stroke: #070707; stroke-width: 2px" d="M777.34,375.62c6.48,2.67,10.88,7.87,10.88,13.84,0,8.7-9.3,15.74-20.78,15.74-3.99,0-7.72-.85-10.89-2.33"/>
      <path style="fill: #070707" d="M758.35,441.65c4.81,2.01,10.44,1.45,15-.96,4.28-2.25,7.57-6.08,9.65-10.39,.65-1.34-1.35-2.52-2-1.17-1.87,3.88-4.69,7.28-8.49,9.39-4.13,2.28-9.16,2.73-13.54,.9-1.38-.58-1.98,1.67-.62,2.24h0Z"/>
      <path style="fill: none; stroke-linecap: round; stroke-linejoin: round; stroke-width: 2px; stroke: #321c0a" d="M735.8,306.81s17.78,4.91,40.81-2.54"/>
      <path style="fill: none; stroke-linecap: round; stroke-linejoin: round; stroke: #fff; stroke-width: 2px" d="M424.74,342.63s.13-8.26,1.52-19.94"/>
      <path style="fill: none; stroke-linecap: round; stroke-linejoin: round; stroke: #070707; stroke-width: 1.5px" d="M477.7,320.29c0,3.72-1.62,7.09-4.19,9.39-2.05-1.46-4.53-2.29-7.23-2.29-3.27,0-6.26,1.24-8.51,3.29-3.29-2.29-5.45-6.08-5.45-10.4,0-7.02,5.69-12.7,12.69-12.7s12.7,5.69,12.7,12.7Z"/>
      <rect style="fill: #070707" x="458.17" y="311.67" width="8.07" height="16.72" rx="4.04" ry="4.04"/>
      <rect style="fill: #070707" x="516.77" y="311.67" width="8.07" height="16.72" rx="4.04" ry="4.04"/>
      <path style="fill: none; stroke-linecap: round; stroke-linejoin: round; stroke: #070707; stroke-width: 1.5px" d="M505.66,320.29c0,3.72,1.62,7.09,4.19,9.39,2.05-1.46,4.53-2.29,7.23-2.29,3.27,0,6.26,1.24,8.51,3.29,3.29-2.29,5.45-6.08,5.45-10.4,0-7.02-5.69-12.7-12.69-12.7s-12.7,5.69-12.7,12.7Z"/>
      <path style="fill: none; stroke-linecap: round; stroke-linejoin: round; stroke: #070707; stroke-width: .75px" d="M418.77,289.71s5.79,7.46,11.01,5.76"/>
      <path style="fill: none; stroke-linecap: round; stroke-linejoin: round; stroke: #0099ce; stroke-width: 2px" d="M447.98,306.31s9.27-7.24,33.28-7.75"/>
      <path style="fill: none; stroke-linecap: round; stroke-linejoin: round; stroke: #0099ce; stroke-width: 2px" d="M534.61,305.42s-9.27-7.24-33.28-7.75"/>
      <path style="fill: none; stroke-linecap: round; stroke-linejoin: round; stroke: #0099ce; stroke-width: 2px" d="M500.19,278.74s10.16-.51,21.97,4.19"/>
      <path style="fill: none; stroke-linecap: round; stroke-linejoin: round; stroke: #070707; stroke-width: 1.5px" d="M511.01,296.93c7.93,.87,17.9,2.95,25.63,7.85v-14.48s-10.92-14.48-39.12-14.48v20.58s2.59-.14,6.61,.02"/>
      <path style="fill: none; stroke-linecap: round; stroke-linejoin: round; stroke: #fff; stroke-width: 2px" d="M445.19,274.81s10.03-13.97,26.55-15.75"/>
      <path style="fill: none; stroke-linecap: round; stroke-linejoin: round; stroke: #070707; stroke-width: 2px" d="M425.98,312.65c-2.08,10.42-3.31,22.78-3.31,37.42"/>
      <circle style="fill: #fff" cx="458.19" cy="318.95" r="2.23"/>
      <circle style="fill: #fff" cx="517.08" cy="318.95" r="2.23"/>
      <path style="fill: none; stroke-linecap: round; stroke-linejoin: round; stroke: #0099ce; stroke-width: 2px" d="M448.58,292.76v-1.86s5.93-6.77,15.92-9.31"/>
      <path style="fill: none; stroke-linecap: round; stroke-linejoin: round; stroke: #070707; stroke-width: 1.5px" d="M485.07,287.89v8.51s-23.88-1.27-39.12,8.38v-14.48s10.92-14.48,39.12-14.48v5.46"/>
      <g>
        <path style="fill: none; stroke-linecap: round; stroke-linejoin: round; stroke: #070707; stroke-width: .75px" d="M446.04,299.19s3.94-2.16,9.16-3.86"/>
        <path style="fill: none; stroke-linecap: round; stroke-linejoin: round; stroke: #070707" d="M446.3,296.18s1.31-1.26,6.41-3.29"/>
      </g>
      <g>
        <path style="fill: none; stroke-linecap: round; stroke-linejoin: round; stroke: #070707; stroke-width: .75px" d="M324.1,302.58s3.94-2.16,9.16-3.86"/>
        <path style="fill: none; stroke-linecap: round; stroke-linejoin: round; stroke: #070707" d="M324.37,299.57s1.31-1.26,6.41-3.29"/>
      </g>
      <path style="fill: none; stroke-linecap: round; stroke-linejoin: round; stroke: #fff; stroke-width: 2px" d="M458.74,272.8s3.8-2.99,9.78-4.76"/>
      <ellipse style="fill: #fff" cx="475.16" cy="266.76" rx="2.88" ry="2.12"/>
      <path style="fill: none; stroke-linecap: round; stroke-linejoin: round; stroke: #fff; stroke-width: 2px" d="M490.91,227.39s1.69,16.6-.85,24.89"/>
      <path style="fill: none; stroke-linecap: round; stroke-linejoin: round; stroke: #fff; stroke-width: 2px" d="M521.23,240.77s-8.81,12.7-15.41,15.58"/>
      <path style="fill: none; stroke-linecap: round; stroke-linejoin: round; stroke-width: 2px; stroke: #321c0a" d="M562.89,350.23c0-84.41-39.45-88.33-39.45-88.33,5.4-12.6-1.8-28.79-1.8-28.79-.82,6.56-4.62,11.99-8.52,15.97"/>
      <path style="fill: none; stroke-linecap: round; stroke-linejoin: round; stroke: #070707; stroke-width: 1.5px" d="M508.11,253.48c-2.57,1.96-4.47,3.02-4.47,3.02,0-28.79-16.19-35.99-16.19-35.99,1.55,4.66,2.21,9.76,2.36,14.66"/>
      <path style="fill: none; stroke-linecap: round; stroke-linejoin: round; stroke: #fff; stroke-width: 2px" d="M478.55,254.48s.68-5.08,.17-8.98"/>
      <path style="fill: none; stroke-linecap: round; stroke-linejoin: round; stroke: #070707; stroke-width: 1.5px" d="M489.78,240.76c-.38,9.74-2.33,17.54-2.33,17.54-1.8-12.6-12.6-19.79-12.6-19.79,3.6,7.2,1.8,17.99,1.8,17.99,0,0-36.47-2.43-49.46,50.67"/>
      <line style="fill: none; stroke-linecap: round; stroke-linejoin: round; stroke: #fff; stroke-width: 3px" x1="396.92" y1="448.56" x2="396.92" y2="421.8"/>
      <line style="fill: none; stroke-linecap: round; stroke-linejoin: round; stroke: #fff; stroke-width: 3px" x1="396.92" y1="409.95" x2="396.92" y2="401.48"/>
      <line style="fill: none; stroke-linecap: round; stroke-linejoin: round; stroke: #fff; stroke-width: 3px" x1="428.42" y1="355.59" x2="523.43" y2="355.59"/>
      <path style="fill: none; stroke-linecap: round; stroke-linejoin: round; stroke-width: 2px; stroke: #321c0a" d="M582.82,374.89v-10.58c0-6.87-5.57-12.44-12.44-12.44h-164.05c-6.87,0-12.44,5.57-12.44,12.44v109.92h188.94v-84.6"/>
      <circle style="fill: #070707" cx="582.96" cy="382.19" r="2.03"/>
      <path style="fill: none; stroke-linecap: round; stroke-linejoin: round; stroke: #070707; stroke-width: 2px" d="M334.12,316.52c3.42-4.22,8.64-6.92,14.48-6.92,10.31,0,18.67,8.36,18.67,18.67,0,5.47-2.38,10.42-6.16,13.8-3.01-2.14-6.66-3.36-10.63-3.36-4.81,0-9.2,1.82-12.51,4.84-4.84-3.36-8.01-8.94-8.01-15.29"/>
      <path style="fill: none; stroke-linecap: round; stroke-linejoin: round; stroke: #070707; stroke-width: 2.2px" d="M380.13,328.28c0,5.47,2.38,10.42,6.16,13.8,3.01-2.14,6.66-3.36,10.63-3.36,4.81,0,9.2,1.82,12.51,4.84,4.84-3.36,8.01-8.94,8.01-15.29,0-10.31-8.36-18.67-18.64-18.67-10.31,0-18.67,8.36-18.67,18.67Z"/>
      <rect style="fill: #070707" x="397.67" y="317.07" width="10.45" height="21.65" rx="5.23" ry="5.23" transform="translate(805.79 655.79) rotate(-180)"/>
      <g>
        <rect style="fill: #070707" x="340.43" y="317.07" width="10.45" height="21.65" rx="5.23" ry="5.23" transform="translate(691.31 655.79) rotate(-180)"/>
        <circle style="fill: #fff" cx="340.43" cy="326.29" r="3.6"/>
      </g>
      <g>
        <rect style="fill: #070707" x="584.33" y="303.96" width="10.45" height="21.65" rx="5.23" ry="5.23" transform="translate(1179.11 629.57) rotate(-180)"/>
        <circle style="fill: #fff" cx="584.33" cy="313.18" r="3.6"/>
      </g>
      <g>
        <rect style="fill: #070707" x="670.26" y="303.96" width="10.45" height="21.65" rx="5.23" ry="5.23" transform="translate(1350.97 629.57) rotate(-180)"/>
        <circle style="fill: #fff" cx="670.26" cy="313.18" r="3.6"/>
      </g>
      <circle style="fill: #fff" cx="396.92" cy="326.29" r="3.6"/>
      <path style="fill: none; stroke-linecap: round; stroke-linejoin: round; stroke: #0099ce; stroke-width: 2px" d="M406.52,278.73s4.8-3.92,13.44-1.21"/>
      <path style="fill: none; stroke-linecap: round; stroke-linejoin: round; stroke: #070707; stroke-width: 1.5px" d="M434.18,284.54l-2.66-2.7c-5.56-5.74-13.53-8.48-21.44-7.35h0s0,0,0,0h0c-9,1.8-9.99,8.82-7.77,13.26l.57,1.14h0c.57,1.01,1.24,1.9,1.99,2.7"/>
      <path style="fill: none; stroke-linecap: round; stroke-linejoin: round; stroke: #fff; stroke-width: 2px" d="M263.13,258.04s-1.02-9.06,9.82-8.04"/>
      <line style="fill: none; stroke-linecap: round; stroke-linejoin: round; stroke: #070707; stroke-width: 2px" x1="268.42" y1="273.16" x2="267.19" y2="271"/>
      <path style="fill: none; stroke-linecap: round; stroke-linejoin: round; stroke: #070707; stroke-width: 2px" d="M263.77,265.06l-2.01-3.56c-1.96-3.47-1.73-7.9,.93-10.86,2.04-2.26,5.56-3.91,11.63-2.93,14.56,2.37,40.64,25.4,40.64,25.4l-6.04,10.36c-2.67,.94-7.96,2.12-18.34,2.85-.08,0-.15,.01-.23,.01-7.13,.44-13.9-2.66-18.49-7.95"/>
      <path style="fill: none; stroke-linecap: round; stroke-linejoin: round; stroke: #fff; stroke-width: 3px" d="M309.74,288.02s8.94-18.29,31.3-32.77"/>
      <path style="fill: none; stroke-linecap: round; stroke-linejoin: round; stroke: #fff; stroke-width: 3px" d="M269.69,437.05s-2.17,23.2-2.17,37.19"/>
      <line style="fill: none; stroke-linecap: round; stroke-linejoin: round; stroke: #fff; stroke-width: 3px" x1="328.68" y1="282.92" x2="351.03" y2="275.48"/>
      <line style="fill: none; stroke-linecap: round; stroke-linejoin: round; stroke-width: 2px; stroke: #f27e00" x1="325.39" y1="309.44" x2="358.65" y2="298.18"/>
      <polygon style="fill: none; stroke-linecap: round; stroke-linejoin: round; stroke: #070707; stroke-width: 2px" points="323.09 308.34 323.09 281.92 360 269.73 360 295.81 323.09 308.34"/>
      <path style="fill: none; stroke-linecap: round; stroke-linejoin: round; stroke-width: 2px; stroke: #f27e00" d="M383.59,225.4s4.19,8,3.81,17.15"/>
      <path style="fill: none; stroke-linecap: round; stroke-linejoin: round; stroke-width: 2px; stroke: #f27e00" d="M368.45,226.92s3.12,6.1,4.7,12.19"/>
      <g>
        <path style="fill: none; stroke-linecap: round; stroke-linejoin: round; stroke: #070707; stroke-width: 2px" d="M267.53,428.11c-2.82,26.79-3.04,45.52-3.04,45.52"/>
        <path style="fill: none; stroke-linecap: round; stroke-linejoin: round; stroke: #070707; stroke-width: 2px" d="M270.96,401.18c-.99,6.57-1.84,12.92-2.55,18.95"/>
        <path style="fill: none; stroke-linecap: round; stroke-linejoin: round; stroke: #070707; stroke-width: 2px" d="M354.99,245.66c-50.32,15.52-72.68,87.62-82.61,146.64"/>
        <path style="fill: none; stroke-linecap: round; stroke-linejoin: round; stroke: #070707; stroke-width: 2px" d="M422.34,273.79c-6.95-14.99-18.84-25.07-32.64-29.14"/>
        <path style="fill: none; stroke-linecap: round; stroke-linejoin: round; stroke: #070707; stroke-width: 2px" d="M355.52,245.59s14.1-11.56,12.28-23.29c0,0,4.77,7.1,6.86,13.63"/>
        <path style="fill: none; stroke-linecap: round; stroke-linejoin: round; stroke: #070707; stroke-width: 2px" d="M370.37,245.01c3.5-6.14,9.86-18.72,9.62-28.8,0,0,11.01,10.25,9.57,29.04"/>
      </g>
      <circle style="fill: #070707" cx="331.15" cy="321.8" r="2.12"/>
      <line style="fill: none; stroke-linecap: round; stroke-linejoin: round; stroke-width: 2px; stroke: #d86600" x1="390.95" y1="295.34" x2="414.07" y2="303.13"/>
      <polyline style="fill: none; stroke-linecap: round; stroke-linejoin: round; stroke: #070707; stroke-width: 2px" points="401.31 302.01 419.96 308.34 419.96 298.3"/>
      <circle style="fill: #d86600" cx="385.5" cy="289.96" r="2.27"/>
      <polyline style="fill: none; stroke-linecap: round; stroke-linejoin: round; stroke: #070707; stroke-width: 2px" points="383.04 285.8 383.04 295.81 396.96 300.53"/>
      <ellipse style="fill: #0099ce" cx="474.16" cy="282.62" rx="5.25" ry="3.53" transform="translate(-41.69 86.14) rotate(-9.95)"/>
      <path style="fill: none; stroke-linecap: round; stroke-linejoin: round; stroke-width: 2px; stroke: #321c0a" d="M695.24,315.37c0,9.99-2.66,18.95-6.85,24.95-1.03,1.47-2.95,2.1-4.58,1.35-2.98-1.38-6.45-2.17-10.16-2.17-2.49,0-4.86,.36-7.06,1-1.62,.48-3.39-.1-4.27-1.54-3.68-5.96-5.96-14.32-5.96-23.59,0-18.08,8.71-32.75,19.43-32.75s19.45,14.66,19.45,32.75Z"/>
      <path style="fill: none; stroke-linecap: round; stroke-linejoin: round; stroke-width: 2px; stroke: #bde9f9" d="M702.27,370.32s-7.62-5.76-16.77-3.56c-4,.96-7.02,1.83-10.67,3.56-9.65,4.57-15.31,11.24-22.1,12.7"/>
      <path style="fill: #070707" d="M393.6,406.06c-20.59,3.1-43.73-.76-59.53-15.19-4-3.66-7.52-8.14-8.97-13.45-1.37-5-.86-10.77,2.45-14.93,6.7-8.41,19.08-6.9,28.04-3.94,11.91,3.94,24.76,10.94,37.34,5.3,1.32-.59,.18-2.53-1.14-1.94-11.87,5.32-24.63-1.93-35.82-5.6-9.47-3.1-21.83-4.27-29.33,3.8-3.66,3.93-4.99,9.42-4.34,14.68s3.41,10.39,7.03,14.49c7.21,8.17,17.44,13.68,27.79,16.76,11.99,3.57,24.75,4.04,37.08,2.19,1.43-.22,.82-2.38-.6-2.17h0Z"/>
      <path style="fill: #070707" d="M348.97,368.23c1.25,3.72,4.7,6.25,8.55,6.73,4.19,.52,8.32-1.49,11.17-4.47,1-1.05-.59-2.64-1.59-1.59-2.34,2.45-5.61,4.14-9.07,3.86-2.99-.24-5.92-2.24-6.89-5.13-.46-1.37-2.63-.78-2.17,.6h0Z"/>
      <path style="fill: none; stroke-linecap: round; stroke-linejoin: round; stroke: #070707; stroke-width: 2.09px" d="M351.03,362.19c0,5.08-5.42,9.2-12.11,9.2s-12.11-4.12-12.11-9.2"/>
      <path style="fill: none; stroke-linecap: round; stroke-linejoin: round; stroke: #fff" d="M671.61,411.73s7.06-12.29,18.54-14.9"/>
      <path style="fill: #070707" d="M606.53,381.95c16.63,6.11,35.79,4.77,51.39-3.64,4.32-2.33,8.18-5.35,12.33-7.96s8.83-4.56,13.76-5.45c4.38-.79,9.16-.92,13.43,.48,4.51,1.48,7.31,4.93,8.7,9.38,2.67,8.52,.76,17.88-3.69,25.46-4.54,7.73-11.79,13.47-19.7,17.47-16.03,8.1-35.12,9.97-52.63,6.47-8.82-1.76-17.36-4.88-25.18-9.34-3.12-1.78-6.22-3.7-8.89-6.11l-5.4-4.88-1.29-1.16c-1.07-.97-2.67,.62-1.59,1.59,3.37,3.05,6.64,6.33,10.36,8.95,7.69,5.4,16.54,9.3,25.59,11.76,17.87,4.86,37.47,4.12,54.69-2.87,8.41-3.41,16.37-8.38,22.21-15.43,5.75-6.93,9.33-15.9,8.95-24.98-.18-4.36-1.19-9.07-3.69-12.73s-6.41-5.71-10.68-6.46c-9.82-1.72-19.73,1.62-27.84,7.02-4.19,2.79-8.23,5.74-12.77,7.95-4.19,2.04-8.63,3.54-13.17,4.55-9.08,2.02-18.65,1.97-27.69-.23-2.24-.55-4.45-1.23-6.62-2.02-1.36-.5-1.95,1.67-.6,2.17h0Z"/>
      <path style="fill: #070707" d="M666.67,424.58c1.35-14.31,11.51-27.16,26.09-29.45,4.01-.63,8.12-.36,12.01,.8,1.19,.36,1.7-1.51,.51-1.86-7.33-2.18-15.31-1.26-22.12,2.13s-12.12,9.3-15.23,16.19c-1.74,3.87-2.8,7.97-3.2,12.19-.12,1.24,1.82,1.23,1.93,0h0Z"/>
      <path style="fill: #fff" d="M576.73,229.21c.92-9.72,2.73-19.33,5.38-28.72,.53-1.86-2.37-2.66-2.89-.8-2.72,9.65-4.55,19.53-5.49,29.52-.18,1.92,2.82,1.91,3,0h0Z"/>
      <path style="fill: #fff" d="M552.1,250.07c4.76-3.1,10.02-6.36,15.94-5.81,.81,.08,1.5-.74,1.5-1.5,0-.87-.69-1.42-1.5-1.5-6.43-.6-12.27,2.85-17.45,6.22-1.61,1.05-.11,3.65,1.51,2.59h0Z"/>
      <path style="fill: #fff" d="M622.24,205.28c1.66-3.51,3.29-7.04,4.97-10.54,1.42-2.97,3.06-5.57,5.69-7.6,4.34-3.36,9.82-5.52,12.52-10.61,.9-1.7-1.68-3.22-2.59-1.51-2.63,4.96-8.45,6.99-12.58,10.43-2.48,2.07-4.15,4.71-5.54,7.59-1.72,3.56-3.38,7.16-5.07,10.74-.82,1.74,1.77,3.26,2.59,1.51h0Z"/>
      <path style="fill: #070707" d="M688.76,386.63c5.28,.77,10.46-1.8,13.25-6.32,2.45-3.97,3.82-10.77,.16-14.46-.91-.92-2.34,.5-1.42,1.42,1.5,1.52,1.69,3.77,1.54,5.79-.16,2.19-.86,4.36-2.02,6.23-2.27,3.68-6.62,6.03-10.98,5.39-1.27-.18-1.82,1.76-.54,1.94h0Z"/>
      <ellipse style="fill: #8389ff" cx="625.55" cy="229.08" rx="16.77" ry="9.15" transform="translate(21.23 509.43) rotate(-45)"/>
      <ellipse style="fill: #8389ff" cx="639.89" cy="207.11" rx="7.47" ry="5.67"/>
      <g>
        <polygon style="fill: #f4ad5e" points="3.09 474.47 890.25 474.47 890.25 509.22 1.34 509.22 3.09 474.47"/>
        <polygon style="fill: #ffc68d" points="1.34 474.47 890.25 474.47 890.25 482.81 3.09 482.81 1.34 474.47"/>
        <rect style="fill: #e28c37" x="1.34" y="500.54" width="888.91" height="8.33"/>
        <path style="fill: none; stroke: #ffdcc0; stroke-miterlimit: 10; stroke-width: 1.19px" d="M1.82,487.41c51.43,6.51,235.67,9.03,287.7,7.53,73.69-3.47,122.81-9.85,197.22-9.85,87.41,0,286.48,9.85,402.79,11"/>
        <path style="fill: none; stroke: #ffdcc0; stroke-miterlimit: 10; stroke-width: 1.19px" d="M888.08,487.51c-116.31,1.16-315.37,11-402.79,11-32-.31-63.94-2.33-95.61-6.04-84.85-8.06-302.8-7.23-387.38,2.47h0"/>
        <polyline style="fill: none; stroke-linecap: round; stroke-linejoin: round; stroke: #000201; stroke-width: 2.29px" points="48.83 474.77 890.05 474.77 890.05 509.53 1.15 509.53 1.15 474.77 34.03 474.77"/>
      </g>
      <g>
        <rect style="fill: #8c8caf" x="142.27" y="196.86" width="81.5" height="28.64"/>
        <rect style="fill: #cacad8" x="156.51" y="196.86" width="81.5" height="28.64"/>
        <path style="fill: #8c8caf" d="M238.01,225.5h-81.5l53.04-4.21c11.7-.93,21.88-8.37,26.33-19.23l2.13-5.2v28.64Z"/>
        <polyline style="fill: none; stroke-linecap: round; stroke-linejoin: round; stroke: #fff; stroke-width: 1.54px" points="199.34 199.85 158.72 199.85 158.72 217.62"/>
        <polyline style="fill: none; stroke-linecap: round; stroke-linejoin: round; stroke: #070707; stroke-width: 1.54px" points="182.42 225.63 155.99 225.63 155.99 197.51 238.01 197.51 238.01 225.63 191.04 225.63"/>
        <polyline style="fill: none; stroke-linecap: round; stroke-linejoin: round; stroke: #070707; stroke-width: 1.54px" points="157.55 225.63 141.54 225.63 141.54 197.51 157.55 197.51"/>
        <circle style="fill: #fff" cx="178.06" cy="212.35" r="6.64"/>
        <circle style="fill: #fff" cx="217.23" cy="212.06" r="6.64"/>
        <g>
          <polyline style="fill: none; stroke-linecap: round; stroke-linejoin: round; stroke: #070707; stroke-width: 1.54px" points="127.09 240.77 127.09 219.35 151.3 219.35"/>
          <polyline style="fill: none; stroke-linecap: round; stroke-linejoin: round; stroke: #070707; stroke-width: 1.54px" points="114.98 240.77 114.98 210.01 149.35 210.01"/>
        </g>
        <g>
          <polyline style="fill: none; stroke-linecap: round; stroke-linejoin: round; stroke: #070707; stroke-width: 1.54px" points="261.84 228.67 261.84 217.97 238.66 217.97"/>
          <polyline style="fill: none; stroke-linecap: round; stroke-linejoin: round; stroke: #070707; stroke-width: 1.54px" points="273.94 233.85 273.94 210.01 239.57 210.01"/>
        </g>
        <line style="fill: none; stroke-linecap: round; stroke-linejoin: round; stroke: #070707; stroke-width: 1.54px" x1="195.83" y1="197.51" x2="195.83" y2="164.7"/>
        <ellipse style="fill: none; stroke-linecap: round; stroke-linejoin: round; stroke: #070707; stroke-width: 1.54px" cx="197.91" cy="158.93" rx="5.08" ry="18.7" transform="translate(-47.79 222.64) rotate(-53.3)"/>
        <ellipse style="fill: none; stroke-linecap: round; stroke-linejoin: round; stroke: #070707; stroke-width: 1.54px" cx="195.96" cy="158.93" rx="18.7" ry="5.08" transform="translate(-56.13 148.6) rotate(-36.7)"/>
        <circle style="fill: none; stroke-linecap: round; stroke-linejoin: round; stroke: #070707; stroke-width: 1.54px" cx="178.25" cy="212.35" r="6.64"/>
        <circle style="fill: none; stroke-linecap: round; stroke-linejoin: round; stroke: #070707; stroke-width: 1.54px" cx="217.31" cy="212.35" r="6.64"/>
        <circle style="fill: #070707" cx="178.12" cy="212.35" r="2.55"/>
        <circle style="fill: #070707" cx="217.31" cy="212.35" r="2.55"/>
      </g>
      <circle style="fill: #fff" cx="804.56" cy="390.14" r="3.01"/>
      <circle style="fill: #fff" cx="764.76" cy="390.14" r="3.01"/>
      <path style="fill: #f4a462" d="M796.9,367.29c-2.65,.82-3.71,3.8-2.54,6.24,1.36,2.83,4.58,3.64,7.43,4.04,6.54,.92,13.23,.22,19.44-2.05,1.8-.66,1.02-3.56-.8-2.89-4.56,1.67-9.34,2.48-14.2,2.33-2.3-.07-4.91-.17-7.08-1.03-.88-.35-1.84-.95-2.18-1.89-.26-.71-.07-1.62,.72-1.86,1.84-.57,1.05-3.47-.8-2.89h0Z"/>
      <path style="fill: #070707" d="M796.95,363.83c-2.75,1.45-5.2,3.9-5.75,7.07s.76,6.28,3.61,7.84,6.69,1.99,9.97,2.19c3.69,.23,7.42-.08,11.03-.86,4.03-.87,7.91-2.39,11.48-4.44,1.26-.72,.12-2.67-1.14-1.94-6.84,3.92-14.79,5.64-22.65,4.89-3.12-.3-8.18-.71-9.73-3.95-1.75-3.67,1.2-7.22,4.3-8.85,1.28-.67,.15-2.62-1.14-1.94h0Z"/>
      <path style="fill: #e5694c" d="M785.8,423.21c13.77-6.96,31.55-4.64,43.08,5.6,1.44,1.28,3.57-.84,2.12-2.12-9.77-8.68-23.48-12.15-36.27-9.68-3.64,.7-7.15,1.94-10.45,3.61-1.72,.87-.21,3.46,1.51,2.59h0Z"/>
      <path style="fill: #070707" d="M781.82,430.28c2.46,5.09,6.58,9.41,11.94,11.41,3.93,1.46,9.24,1.85,13.04-.25s7.76-3.79,11.88-5.23c6.07-2.12,12.27-3.83,18.51-5.35,.9-.22,.99-1.25,.5-1.88-3.32-4.25-7.96-7.77-12.59-10.44-10.11-5.83-22-7.2-33.14-3.64-.95,.3-1.88,.64-2.81,1s-1.77,.87-2.76,.73c-1.84-.25-3.43-2.02-4.45-3.44-1.2-1.69-1.84-3.69-1.5-5.77s1.69-4.1,3.91-4.4c1.43-.19,.82-2.36-.6-2.17-3.69,.5-5.73,4.53-5.64,7.94s2.26,6.83,5.1,8.84c1.31,.93,2.97,1.54,4.58,1.17,1.8-.41,3.54-1.37,5.31-1.91,3.36-1.03,6.83-1.65,10.35-1.76,10.39-.32,20.34,3.96,28.06,10.76,1.63,1.43,3.24,2.96,4.58,4.68l.5-1.88c-8.84,2.16-17.73,4.61-26.07,8.31-1.5,.67-3,1.37-4.41,2.22-2.37,1.43-5.47,1.62-8.16,1.24-6.46-.91-11.44-5.6-14.2-11.31-.63-1.3-2.57-.16-1.94,1.14h0Z"/>
      <path style="fill: #e5694c" d="M761.05,422.17c5.89-1.75,12.28-.8,17.41,2.57,1.62,1.06,3.12-1.54,1.51-2.59-5.77-3.78-13.12-4.83-19.72-2.87-1.85,.55-1.06,3.45,.8,2.89h0Z"/>
      <path style="fill: #070707" d="M758.21,418.87c1.65-1.38,4.03-1.43,6.07-1.47s3.99,.04,5.96,.31c3.96,.55,7.89,1.87,10.95,4.52,1.12,.97,2.76-.66,1.63-1.63-3.57-3.09-8.03-4.61-12.66-5.2-2.33-.3-4.7-.37-7.04-.26s-4.67,.54-6.54,2.11c-1.14,.95,.5,2.58,1.63,1.63h0Z"/>
      <g>
        <path style="fill: none; stroke-linecap: round; stroke-linejoin: round; stroke-width: 2px; stroke: #321c0a" d="M743.8,330.96c7.2,26.52,14.52,70.96,14.52,141.99"/>
        <path style="fill: none; stroke-linecap: round; stroke-linejoin: round; stroke-width: 2px; stroke: #321c0a" d="M706.81,201.92c5.02-4.32,10.41-10.21,15.95-18.22,0,0,7.35,16.36,7.35,44.14,0,0,23.82-8.07,40.75,8.87,0,0-25.85,17.1-25.85,33.87,0,0,14.84,7.79,14.84,25.91h-29.81s3.43,4.48,7.9,16.2"/>
        <path style="fill: none; stroke-linecap: round; stroke-linejoin: round; stroke-width: 2px; stroke: #321c0a" d="M604.01,204.4c3.51,2.43,7.63,4.02,12.4,4.02,0,0,3.96-18.11,14.97-25.94,7.91-5.62,13.81-13.62,16.61-22.91l1.61-5.34s27.77,25.04,27.44,58.91c0,0,8.34,2.26,20.54-4.65"/>
        <path style="fill: none; stroke-linecap: round; stroke-linejoin: round; stroke-width: 2px; stroke: #321c0a" d="M575.13,211.95c2.43-11.56,6.32-24.21,12.48-32.32,0,0,2.99,10.18,9.69,18.43"/>
        <path style="fill: none; stroke-linecap: round; stroke-linejoin: round; stroke-width: 2px; stroke: #321c0a" d="M538.84,270.06s-9.48-10.16-5.42-24.73c0,0,7.79,7.11,15.58,1.69,7.79-5.42,12.87-7.79,22.35-7.79,0,0,.23-6.8,2.2-18.29"/>
      </g>
      <g>
        <path style="fill: #ffc1b3" d="M831.45,325.97c-1.47-.32-3.02-.68-4.15-1.68s-1.65-2.86-.71-4.04c.28-.35,.65-.6,1.02-.85,2.24-1.52,4.47-3.04,6.71-4.56,.34-.23,.69-.47,1.09-.59,.59-.18,1.23-.08,1.83,.09,1.34,.39,2.57,1.15,3.51,2.19,.91,1,1.53,2.23,2.14,3.44,1,1.98,1.99,4.4,.83,6.29-.99,1.61-3.09,2.06-4.97,2.31-2.01,.27-4.05,.49-6.06,.23-1.51-.19-3.05-.69-4.07-1.81-1.18-1.3-1.44-3.17-1.65-4.91"/>
        <path style="fill: #ffc1b3" d="M830.75,324.08c-.32,.65-.95,1.13-1.63,1.15s-1.18-.41-1.37-1.04c-.08-.26-.09-.49,.03-.78,.18-.41,.55-.72,.85-1.04,.76-.83,1.43-2,.96-3.14-.16-.4-.49-.74-.96-.73-1.3,.04-2.56,.65-3.37,1.67-.9,1.13-1.2,2.52-.87,3.94s1.26,2.88,2.52,3.63,2.76,.7,4.09,.3c1.51-.46,2.9-1.35,3.98-2.49,.88-.93-.52-2.33-1.4-1.4-1.46,1.54-4.64,3.37-6.36,1.25-.73-.9-1.26-2.21-.82-3.31,.36-.9,1.31-1.56,2.24-1.59l-.96-.73c.18,.44-.1,.82-.4,1.16-.43,.47-.91,.92-1.21,1.49-.56,1.09-.42,2.39,.29,3.38,1.59,2.21,4.95,1.63,6.11-.71,.24-.48,.13-1.07-.36-1.36-.44-.26-1.12-.13-1.36,.36h0Z"/>
        <path style="fill: #ffc1b3" d="M831.7,320.57c-.58-1.18-1.18-2.55-.66-3.85,.38-.94,1.24-1.69,2.17-2.05,2.39-.93,5.23,.26,7.06,1.84,1.71,1.48,3.15,3.74,3.16,6.06,0,2.59-2.64,3.9-4.9,4.03-1.65,.09-3.32-.18-4.93-.5-1.27-.25-2.82-.7-3.22-2.1-.35-1.23-2.26-.71-1.91,.53,.45,1.6,1.78,2.63,3.31,3.15,1.7,.58,3.69,.81,5.48,.9,3.18,.16,6.9-1.06,7.94-4.41,.95-3.05-.95-6.62-3.1-8.7-2.33-2.25-5.97-3.84-9.2-2.8-1.58,.51-2.97,1.66-3.63,3.2-.84,1.95-.15,3.9,.73,5.69,.56,1.15,2.28,.14,1.71-1h0Z"/>
      </g>
      <path style="fill: #ffc1b3" d="M849.62,333.07c1.42,.61,2.8,1.14,4.37,.88,1.32-.22,2.58-1.19,2.91-2.52s-.19-2.89-1.46-3.48c-.79-.36-1.6-.32-2.44-.28-.72,.03-1.44,.07-2.16,.1s-1.45,.06-2.13,.35c-.76,.32-1.27,.95-1.55,1.71-.47,1.29,.02,2.76,.97,3.7s2.38,1.54,3.67,1.86c1.41,.35,2.91,.31,4.19-.42s2.22-2.21,2.01-3.77-1.44-2.81-3.06-2.95c-.78-.07-1.53,.74-1.5,1.5,.04,.87,.66,1.43,1.5,1.5l-.21-.03c.06,.01,.12,.03,.18,.05-.02,.03-.33-.19-.1-.04l.08,.05c.1,.07,.1,.07,0,0l-.08-.06s.09,.09,.13,.13c.21,.2-.07-.2-.03-.04,0,.02,.13,.21,.12,.21-.05,.02-.1-.32-.04-.09,.02,.08,.05,.42,.06,.18,0-.26,0,.04,0,.09,.03,.26-.02-.08,.03-.11-.02,0-.07,.27-.07,.29-.08,.3,.02-.06,.03-.06,0,.02-.14,.27-.17,.28,0,0,.25-.26,.03-.05-.06,.06-.13,.13-.19,.19-.28,.25,.17-.07-.09,.06-.06,.03-.13,.08-.19,.11l-.1,.05c-.15,.07-.13,.06,.05-.02-.1,.09-.35,.11-.48,.14-.09,.02-.33,.03-.01,.01-.09,0-.19,.02-.28,.02-.14,0-.28,0-.43,0-.32,0,.18,.05-.17-.02-.47-.1-.93-.22-1.38-.4-.09-.03-.18-.07-.27-.11,.27,.11,.01,0-.05-.03-.2-.09-.41-.2-.6-.31-.11-.06-.21-.13-.31-.2-.08-.05-.17-.18,.02,.01-.07-.07-.15-.13-.22-.2-.06-.06-.21-.27-.04-.02-.04-.06-.08-.14-.13-.2-.19-.24,.06,.29-.01,0-.01-.06-.03-.13-.05-.19-.09-.28,0,.33,0-.05,0-.31,.04,.04-.02,.05,0,0,.04-.17,.04-.19,.06-.32-.15,.29,0,0,.05-.09,.16-.19-.07,.08,.22-.25-.26,.21,0,0-.04,.04-.3,.08-.02,0,0,0,.4-.07,.17-.04-.21,.03,.25-.01,.3-.01,1.03-.05,2.05-.1,3.08-.15,.23-.01,.46-.01,.7-.01-.27,0-.08-.03,0,.01l-.14-.07c.14,.08,.11,.05-.07-.08,0,.01,.15,.12,.13,.13-.08,.02-.18-.3-.05-.04,.09,.17-.08-.36-.03-.06,.01,.05,.02,.09,.03,.14,.02,.12,.02,.06-.02-.16,0,0,0,.29,0,.29l.03-.21c-.01,.06-.03,.12-.05,.18-.09-.05,.17-.28,.04-.1-.15,.21,.21-.19-.05,.08-.22,.22,0-.01,.01,.01,0,0-.27,.16-.28,.17-.3,.17,.29-.06-.05,.02-.11,.02-.22,.06-.33,.08-.3,.07,.06,0,.06,0-.06,.05-.31,.01-.39,0s-.36-.04-.07,0c-.14-.02-.27-.05-.41-.08-.27-.07-.54-.16-.8-.25-.09-.03-.18-.07-.26-.1-.16-.07-.17-.07-.03-.01-.09-.04-.17-.07-.26-.11-.72-.31-1.64-.24-2.05,.54-.34,.65-.23,1.72,.54,2.05h0Z"/>
      <path style="fill: #ffc1b3" d="M752.23,325.61c1.42,.61,2.8,1.14,4.37,.88,1.32-.22,2.58-1.19,2.91-2.52s-.19-2.89-1.46-3.48c-.79-.36-1.6-.32-2.44-.28-.72,.03-1.44,.07-2.16,.1s-1.45,.06-2.13,.35c-.76,.32-1.27,.95-1.55,1.71-.47,1.29,.02,2.76,.97,3.7s2.38,1.54,3.67,1.86c1.41,.35,2.91,.31,4.19-.42s2.22-2.21,2.01-3.77-1.44-2.81-3.06-2.95c-.78-.07-1.53,.74-1.5,1.5,.04,.87,.66,1.43,1.5,1.5l-.21-.03c.06,.01,.12,.03,.18,.05-.02,.03-.33-.19-.1-.04l.08,.05c.1,.07,.1,.07,0,0l-.08-.06s.09,.09,.13,.13c.21,.2-.07-.2-.03-.04,0,.02,.13,.21,.12,.21-.05,.02-.1-.32-.04-.09,.02,.08,.05,.42,.06,.18,0-.26,0,.04,0,.09,.03,.26-.02-.08,.03-.11-.02,0-.07,.27-.07,.29-.08,.3,.02-.06,.03-.06,0,.02-.14,.27-.17,.28,0,0,.25-.26,.03-.05-.06,.06-.13,.13-.19,.19-.28,.25,.17-.07-.09,.06-.06,.03-.13,.08-.19,.11l-.1,.05c-.15,.07-.13,.06,.05-.02-.1,.09-.35,.11-.48,.14-.09,.02-.33,.03-.01,.01-.09,0-.19,.02-.28,.02-.14,0-.28,0-.43,0-.32,0,.18,.05-.17-.02-.47-.1-.93-.22-1.38-.4-.09-.03-.18-.07-.27-.11,.27,.11,.01,0-.05-.03-.2-.09-.41-.2-.6-.31-.11-.06-.21-.13-.31-.2-.08-.05-.17-.18,.02,.01-.07-.07-.15-.13-.22-.2-.06-.06-.21-.27-.04-.02-.04-.06-.08-.14-.13-.2-.19-.24,.06,.29-.01,0-.01-.06-.03-.13-.05-.19-.09-.28,0,.33,0-.05,0-.31,.04,.04-.02,.05,0,0,.04-.17,.04-.19,.06-.32-.15,.29,0,0,.05-.09,.16-.19-.07,.08,.22-.25-.26,.21,0,0-.04,.04-.3,.08-.02,0,0,0,.4-.07,.17-.04-.21,.03,.25-.01,.3-.01,1.03-.05,2.05-.1,3.08-.15,.23-.01,.46-.01,.7-.01-.27,0-.08-.03,0,.01l-.14-.07c.14,.08,.11,.05-.07-.08,0,.01,.15,.12,.13,.13-.08,.02-.18-.3-.05-.04,.09,.17-.08-.36-.03-.06,.01,.05,.02,.09,.03,.14,.02,.12,.02,.06-.02-.16,0,0,0,.29,0,.29l.03-.21c-.01,.06-.03,.12-.05,.18-.09-.05,.17-.28,.04-.1-.15,.21,.21-.19-.05,.08-.22,.22,0-.01,.01,.01,0,0-.27,.16-.28,.17-.3,.17,.29-.06-.05,.02-.11,.02-.22,.06-.33,.08-.3,.07,.06,0,.06,0-.06,.05-.31,.01-.39,0s-.36-.04-.07,0c-.14-.02-.27-.05-.41-.08-.27-.07-.54-.16-.8-.25-.09-.03-.18-.07-.26-.1-.16-.07-.17-.07-.03-.01-.09-.04-.17-.07-.26-.11-.72-.31-1.64-.24-2.05,.54-.34,.65-.23,1.72,.54,2.05h0Z"/>
      <path style="fill: #ffc1b3" d="M817.69,323.93c-.04-.13-.07-.25-.1-.38,0-.04-.06-.37-.04-.14-.03-.23-.03-.47-.03-.7,0-.13,.01-.26,.02-.39-.01,.16,0,.01,0-.07,.05-.26,.11-.51,.19-.77,.24-.79,.73-1.63,1.27-2.23,1.4-1.58,3.2-2.55,5.1-3.59,.71-.39,.94-1.37,.54-2.05s-1.34-.93-2.05-.54c-2.17,1.19-4.44,2.46-6.01,4.42s-2.53,4.66-1.79,7.22c.23,.78,1.06,1.26,1.85,1.05s1.27-1.06,1.05-1.85h0Z"/>
      <path style="fill: #fff" d="M807.12,352.86c3.37,2.7,7.68,4.1,12,3.65,.81-.08,1.5-.63,1.5-1.5,0-.75-.69-1.59-1.5-1.5-3.53,.37-7.13-.56-9.88-2.77-.63-.51-1.5-.62-2.12,0-.52,.52-.64,1.61,0,2.12h0Z"/>
      <path style="fill: #fff" d="M821.31,364.26l.84,1.48c.09,.17,.22,.32,.39,.42,.14,.13,.31,.22,.51,.27,.2,.06,.4,.07,.6,.03,.2,0,.39-.07,.56-.18l.3-.23c.19-.19,.31-.41,.39-.66l.05-.4c0-.27-.07-.52-.2-.76l-.84-1.48c-.09-.17-.22-.32-.39-.42-.14-.13-.31-.22-.51-.27-.2-.06-.4-.07-.6-.03-.2,0-.39,.07-.56,.18l-.3,.23c-.19,.19-.31,.41-.39,.66l-.05,.4c0,.27,.07,.52,.2,.76h0Z"/>
      <path style="fill: #fff" d="M835.59,456.91c4.64-2.75,8.19-6.99,10.2-11.98,.3-.75-.33-1.65-1.05-1.85-.86-.24-1.54,.29-1.85,1.05-.79,1.95-2.11,4.11-3.51,5.73-1.57,1.82-3.28,3.25-5.31,4.46-1.66,.98-.15,3.58,1.51,2.59h0Z"/>
      <path style="fill: #fff" d="M874.22,412.23c2.61-1.77,4.24-4.71,4.31-7.87,.02-.78-.7-1.54-1.5-1.5s-1.48,.66-1.5,1.5c0,.15,0,.3-.02,.45,0,.08-.02,.17-.02,.25-.02,.25,.01-.1,.02-.1,.04,.01-.16,.81-.18,.89-.08,.29-.18,.58-.28,.86-.12,.32,.1-.21,.02-.03-.04,.08-.07,.15-.1,.23-.06,.14-.13,.27-.21,.41-.14,.27-.3,.52-.48,.77-.04,.06-.08,.11-.12,.16-.13,.18-.09,.06,.02-.02-.11,.08-.2,.24-.29,.35-.2,.23-.42,.44-.64,.64-.09,.08-.23,.26-.35,.29,.06-.02,.23-.17,.06-.05-.08,.06-.16,.12-.25,.17-.65,.44-1,1.34-.54,2.05,.42,.64,1.36,1.01,2.05,.54h0Z"/>
      <path style="fill: #fff" d="M871.79,370.19c.87-4.3,.93-8.66,.2-12.99-.13-.8-1.12-1.25-1.85-1.05-.85,.23-1.18,1.04-1.05,1.85,.63,3.76,.55,7.66-.2,11.4-.16,.79,.23,1.62,1.05,1.85,.74,.2,1.68-.25,1.85-1.05h0Z"/>
      <path style="fill: #fff" d="M869.97,345.38l-.51-.51c-.14-.15-.3-.25-.48-.31-.18-.09-.37-.14-.58-.13-.21,0-.4,.04-.58,.13-.19,.06-.35,.16-.48,.31l-.23,.3c-.14,.23-.2,.49-.2,.76l.05,.4c.07,.25,.2,.47,.39,.66l.51,.51c.14,.15,.3,.25,.48,.31,.18,.09,.37,.14,.58,.13,.21,0,.4-.04,.58-.13,.19-.06,.35-.16,.48-.31l.23-.3c.14-.23,.2-.49,.2-.76l-.05-.4c-.07-.25-.2-.47-.39-.66h0Z"/>
      <path style="fill: #fff" d="M590.55,248.27c2.07-5.36,4.78-10.46,8.02-15.21,1.09-1.6-1.51-3.1-2.59-1.51-3.39,4.97-6.16,10.31-8.32,15.92-.29,.76,.32,1.65,1.05,1.85,.85,.23,1.55-.29,1.85-1.05h0Z"/>
      <path style="fill: #fff" d="M605.1,224.55l2.71-2.71c.27-.27,.44-.68,.44-1.06s-.16-.81-.44-1.06-.66-.46-1.06-.44-.77,.15-1.06,.44l-2.71,2.71c-.27,.27-.44,.68-.44,1.06s.16,.81,.44,1.06,.66,.46,1.06,.44,.77-.15,1.06-.44h0Z"/>
      <path style="fill: #fff" d="M660.02,219.65c5.79,4.85,10.11,11.25,12.36,18.46,.57,1.84,3.47,1.05,2.89-.8-2.39-7.68-6.95-14.62-13.13-19.79-1.47-1.23-3.6,.88-2.12,2.12h0Z"/>
      <path style="fill: #fff" d="M675.03,249.65c.23,.68,.46,1.35,.69,2.03,.13,.37,.34,.69,.69,.9,.17,.11,.36,.17,.56,.18,.2,.04,.4,.04,.6-.03,.36-.12,.71-.34,.9-.69s.28-.77,.15-1.16c-.23-.68-.46-1.35-.69-2.03-.13-.37-.34-.69-.69-.9-.17-.11-.36-.17-.56-.18-.2-.04-.4-.04-.6,.03-.36,.12-.71,.34-.9,.69s-.28,.77-.15,1.16h0Z"/>
      <path style="fill: #fff" d="M437.53,320.09l.7-3.38c.08-.4,.06-.8-.15-1.16-.18-.31-.54-.61-.9-.69-.38-.09-.81-.07-1.16,.15-.32,.2-.61,.52-.69,.9l-.7,3.38c-.08,.4-.06,.8,.15,1.16,.18,.31,.54,.61,.9,.69,.38,.09,.81,.07,1.16-.15,.32-.2,.61-.52,.69-.9h0Z"/>
      <path style="fill: #fff" d="M439.43,307.64c1.93,0,1.93-3,0-3s-1.93,3,0,3h0Z"/>
      <path style="fill: #fff" d="M308.21,321.46c.27-1.06,.6-2.11,1-3.13,.05-.12,.1-.25,.15-.37,.02-.05,.04-.11,.06-.16-.08,.18-.08,.2-.02,.04,.11-.24,.21-.48,.32-.72,.24-.51,.5-1.02,.77-1.52,.38-.69,.19-1.67-.54-2.05s-1.65-.2-2.05,.54c-1.13,2.07-2.01,4.29-2.59,6.57-.19,.76,.25,1.66,1.05,1.85s1.64-.23,1.85-1.05h0Z"/>
      <path style="fill: #fff" d="M314.11,308.31c1.93,0,1.93-3,0-3s-1.93,3,0,3h0Z"/>
      <circle style="fill: #fff" cx="155.85" cy="413.25" r="3.56"/>
      <circle style="fill: #fff" cx="122.57" cy="413.25" r="3.56"/>
      <path style="fill: #fff" d="M87,385.59c12.02-7.31,25.82-10.93,39.89-9.96,1.93,.13,1.92-2.87,0-3-14.55-1.01-28.97,2.81-41.4,10.37-1.65,1-.14,3.6,1.51,2.59h0Z"/>
      <path style="fill: none; stroke-linecap: round; stroke-linejoin: round; stroke: #070707; stroke-width: 2px" d="M78.32,386.63c8.19-6.12,24.29-15.29,47.3-15.29,16.16,0,26.98,6.37,33.93,13.15"/>
      <path style="fill: #fff" d="M80.46,405.94c.6-.59,1.21-1.16,1.84-1.71,.31-.27,.62-.53,.93-.79,.17-.14,.34-.27,.5-.4,.02-.02,.24-.19,.13-.1-.12,.09,.2-.15,.19-.14,1.34-1.01,2.74-1.93,4.19-2.76,.68-.39,.97-1.38,.54-2.05s-1.32-.95-2.05-.54c-3.06,1.75-5.89,3.9-8.4,6.37-.56,.55-.59,1.58,0,2.12s1.52,.59,2.12,0h0Z"/>
      <path style="fill: #fff" d="M97.17,395.19c1.93,0,1.93-3,0-3s-1.93,3,0,3h0Z"/>
      <g>
        <path style="fill: #ff6470" d="M135.16,434.96c-1.28,2.22-4.49,2.22-5.77,0l-1.14-1.98-1.14-1.98c-1.28-2.22,.32-5,2.89-5h4.57c2.57,0,4.17,2.78,2.89,5l-1.14,1.98-1.14,1.98Z"/>
        <path style="fill: none; stroke-linecap: round; stroke-linejoin: round; stroke: #070707; stroke-width: 2px" d="M135.91,434.58c-1.28,2.22-4.49,2.22-5.77,0l-1.14-1.98-1.14-1.98c-1.28-2.22,.32-5,2.89-5h4.57c2.57,0,4.17,2.78,2.89,5l-1.14,1.98-1.14,1.98Z"/>
      </g>
    </g>
  </g>
</svg>